<svg width="575" height="404" viewBox="0 0 575 404" fill="none" xmlns="http://www.w3.org/2000/svg">
<path d="M287.398 404C446.124 404 574.796 378.127 574.796 346.212C574.796 314.296 446.124 288.424 287.398 288.424C128.673 288.424 0 314.296 0 346.212C0 378.127 128.673 404 287.398 404Z" fill="#E9FFFC"/>
<path fill-rule="evenodd" clip-rule="evenodd" d="M310.414 56.2571C332.148 65.3058 353.012 61.2463 357.015 47.1898C361.018 33.1333 346.644 14.4028 324.91 5.35404C303.176 -3.69472 282.312 0.364839 278.31 14.4213C274.307 28.4778 288.681 47.2083 310.414 56.2571Z" fill="#B4F0E9" fill-opacity="0.2"/>
<path fill-rule="evenodd" clip-rule="evenodd" d="M158.403 195.486C141.409 235.084 127.256 256.552 115.946 259.891C98.98 264.898 103.12 244.559 107.668 229.324C112.216 214.089 128.447 187.798 142.63 172.739C156.813 157.681 172.547 150.27 162.98 185.85L154.212 187.455L158.403 195.486Z" fill="#00B394"/>
<path fill-rule="evenodd" clip-rule="evenodd" d="M103.922 252.462L103.776 252.599C103.13 246.212 105.346 237.103 107.668 229.324C108.164 227.665 108.798 225.874 109.553 223.981C111.264 237.767 109.386 247.261 103.922 252.462Z" fill="#041046"/>
<path d="M139.563 197.897C120.736 226.396 107.577 252.054 100.085 274.87" stroke="#041046"/>
<path d="M125.566 220.252L136.568 216.656" stroke="#041046"/>
<path fill-rule="evenodd" clip-rule="evenodd" d="M100.088 251.158C83.7255 252.616 78.7207 210.651 78.7207 179.353C78.7207 148.054 85.3089 129.564 97.0171 131.013C108.725 132.462 116.451 249.7 100.088 251.158Z" fill="#85CDB2"/>
<path d="M94.083 139.75C89.8971 192.219 91.1004 237.259 97.693 274.87" stroke="#041046"/>
<path d="M91.6445 185.71L101.963 175.393" stroke="#041046"/>
<path d="M92.2236 168.877L84.5576 159.618" stroke="#041046"/>
<path fill-rule="evenodd" clip-rule="evenodd" d="M66.3832 218.725L61.266 220.252C64.1178 235.41 68.096 247.164 73.2008 255.512C80.8578 268.036 92.6354 269.722 91.6439 253.776C90.6524 237.83 81.9688 213.169 76.4843 205.144C70.9998 197.12 60.2783 179.621 60.2783 215.912L66.3832 218.725Z" fill="#00B394"/>
<path d="M71.6494 219.226C77.1388 244.778 84.8102 263.054 94.6635 274.053" stroke="#041046"/>
<path d="M79.7657 247.253L70.3555 240.897" stroke="#041046"/>
<path fill-rule="evenodd" clip-rule="evenodd" d="M75.8359 276.633H122.55L116.561 336.85C111.67 338.587 106.178 339.456 100.085 339.456C93.9916 339.456 87.905 338.587 81.8249 336.85L75.8359 276.633Z" fill="#D8D8D8"/>
<path fill-rule="evenodd" clip-rule="evenodd" d="M98.8934 280.436C111.958 280.436 122.55 278.733 122.55 276.633C122.55 274.533 111.958 272.83 98.8934 272.83C85.8284 272.83 75.8359 274.533 75.8359 276.633C75.8359 278.733 85.8284 280.436 98.8934 280.436Z" fill="#041046"/>
<path opacity="0.2" d="M419.953 206.853C419.774 202.711 416.472 199.41 412.424 199.41C409.215 199.41 406.477 201.485 405.389 204.407C404.301 201.485 401.563 199.41 398.354 199.41C394.377 199.41 391.123 202.595 390.839 206.633C389.706 213.44 400.753 223.842 404.146 226.855C404.708 227.353 405.535 227.36 406.105 226.871C409.579 223.887 420.996 213.51 419.953 206.853ZM360.46 112.185C360.353 109.659 358.367 107.645 355.931 107.645C354.001 107.645 352.353 108.911 351.699 110.693C351.045 108.911 349.397 107.645 347.467 107.645C345.075 107.645 343.117 109.588 342.946 112.051C342.264 116.204 348.91 122.549 350.952 124.387C351.289 124.691 351.787 124.695 352.13 124.397C354.22 122.577 361.088 116.247 360.46 112.185ZM248.73 3.02702C248.66 1.34276 247.364 0.000244141 245.776 0.000244141C244.517 0.000244141 243.443 0.843969 243.016 2.03243C242.589 0.843969 241.515 0.000244141 240.256 0.000244141C238.696 0.000244141 237.419 1.29564 237.307 2.93772C236.863 5.70611 241.197 9.93631 242.528 11.1615C242.749 11.3642 243.073 11.367 243.297 11.1681C244.66 9.95456 249.139 5.73454 248.73 3.02702ZM463.036 51.4551C462.971 49.8912 461.762 48.6445 460.279 48.6445C459.105 48.6445 458.102 49.428 457.703 50.5316C457.305 49.428 456.302 48.6445 455.127 48.6445C453.671 48.6445 452.479 49.8474 452.375 51.3722C451.961 53.9428 456.006 57.8709 457.248 59.0085C457.454 59.1968 457.757 59.1994 457.965 59.0147C459.238 57.8878 463.418 53.9692 463.036 51.4551ZM233.424 67.6197C233.359 66.0557 232.15 64.8091 230.667 64.8091C229.492 64.8091 228.489 65.5925 228.091 66.6961C227.693 65.5925 226.69 64.8091 225.515 64.8091C224.059 64.8091 222.867 66.0119 222.763 67.5367C222.348 70.1074 226.393 74.0354 227.636 75.1731C227.842 75.3613 228.145 75.3639 228.353 75.1792C229.625 74.0524 233.806 70.1338 233.424 67.6197Z" fill="#E2E9F6"/>
<path fill-rule="evenodd" clip-rule="evenodd" d="M310.029 356.955C288.005 370.926 269.238 377.911 253.726 377.911C230.459 377.911 220.062 377.196 212.257 379.504C204.453 381.812 199.243 382.033 199.243 376.364C199.243 372.584 202.607 370.76 209.335 370.89C214.665 364.803 221.302 360.959 229.245 359.357C237.189 357.756 259.738 350.087 296.892 336.351H315.987L310.029 356.955Z" fill="#EE9B8B"/>
<path fill-rule="evenodd" clip-rule="evenodd" d="M248.147 269.093C243.917 274.174 233.056 279.498 215.564 285.066C189.326 293.418 146.387 288.82 126.218 309.283C106.049 329.746 126.218 361.906 163.479 361.906C188.32 361.906 228.124 367.241 282.891 377.912C288.845 367.422 289.803 355.732 285.762 342.84L299.55 339.133L306.119 365.164C335.319 359.487 362.927 355.658 388.942 353.674C408.865 352.156 429.29 347.116 439.149 336.819C448.601 326.947 449.914 305.397 433.12 296.16L382.286 280.058C341.392 284.259 318.474 280.604 313.532 269.093H248.147Z" fill="#3E3E49"/>
<path fill-rule="evenodd" clip-rule="evenodd" d="M284.26 375.344C289.469 375.13 293.261 375.275 295.636 375.78C310.903 379.027 311.019 380.646 319.838 381.813C328.657 382.98 360.462 378.639 371.688 380.226C382.913 381.813 387.286 381.813 387.286 375.78C387.286 369.747 377.205 369.134 373.829 367.672C370.452 366.21 349.657 363.384 340.215 353.198C330.774 343.011 321.106 348.818 316.631 351.008C313.844 352.372 306.152 350.217 286.288 344.38C287.172 349.778 287.614 355.13 287.614 360.436C287.614 363.624 286.496 368.593 284.26 375.344Z" fill="#FFA798"/>
<path fill-rule="evenodd" clip-rule="evenodd" d="M313.538 269.093C317.998 279.481 337.096 283.471 370.833 281.064C343.064 293.396 327.06 307.543 322.821 323.503L323.741 323.149L325.571 322.452C325.875 322.337 326.179 322.223 326.482 322.11L328.293 321.436L330.091 320.777L331.877 320.133L333.65 319.504C334.533 319.194 335.411 318.889 336.285 318.59L338.026 317.999L339.755 317.423L341.47 316.863L343.173 316.317L344.863 315.787C345.144 315.7 345.424 315.613 345.704 315.527L347.375 315.019C348.485 314.686 349.586 314.362 350.679 314.049L352.312 313.587C353.668 313.208 355.01 312.844 356.339 312.497L357.927 312.087C368.739 309.34 378.659 307.65 387.689 307.018L389.004 306.934C390.749 306.83 392.46 306.768 394.137 306.745L394.617 306.74L394.411 306.751C385.199 307.294 372.817 310.204 357.267 315.483L355.385 316.128L353.474 316.795L351.531 317.486L349.559 318.199C349.228 318.319 348.895 318.441 348.561 318.564L346.543 319.311C345.865 319.563 345.182 319.82 344.494 320.08L342.415 320.873C340.321 321.677 338.181 322.515 335.996 323.387L333.795 324.27C333.426 324.42 333.055 324.57 332.683 324.721L330.437 325.638L328.16 326.579C327.396 326.896 326.627 327.217 325.853 327.542L323.515 328.527C323.123 328.694 322.729 328.861 322.335 329.029L319.951 330.049L317.538 331.091L315.094 332.157L312.619 333.245L310.114 334.355L307.579 335.489L305.013 336.645L302.416 337.824L299.556 339.133L285.769 342.84C280.706 343.496 273.528 342.208 265.106 339.775L263.865 339.411C263.656 339.349 263.447 339.286 263.237 339.223L261.971 338.835L260.688 338.432L259.389 338.015L258.075 337.584C257.855 337.511 257.634 337.438 257.413 337.363L256.078 336.913L254.729 336.45C254.503 336.371 254.277 336.293 254.05 336.213L252.682 335.733L251.302 335.241L249.212 334.483L247.804 333.966L246.387 333.44L244.961 332.905L242.806 332.087L239.905 330.973L238.445 330.406L235.507 329.257L232.55 328.09L227.344 326.018L219.517 322.889L216.248 321.587C198.123 314.383 177.375 312.227 154.002 315.119C175.624 309.383 200.708 310.723 229.255 319.139C230.131 306.218 223.63 295.392 209.754 286.66C211.767 286.185 213.71 285.658 215.57 285.066L216.714 284.699L217.839 284.333L218.944 283.968L220.566 283.421L221.623 283.058C221.798 282.997 221.971 282.937 222.144 282.876L223.173 282.514L224.679 281.971L225.66 281.61L226.621 281.25L227.563 280.891L228.486 280.532L229.389 280.174L230.273 279.817L231.138 279.461L231.984 279.105C232.124 279.045 232.262 278.986 232.4 278.927L233.217 278.572L234.015 278.218L234.793 277.865L235.553 277.512L236.293 277.16L237.014 276.809L237.715 276.459L238.398 276.109L239.061 275.76L239.705 275.411L240.33 275.064C240.433 275.006 240.534 274.948 240.635 274.89L241.231 274.543C241.427 274.428 241.619 274.313 241.808 274.197L242.366 273.852L242.904 273.508C243.256 273.278 243.596 273.049 243.923 272.821L244.404 272.478L244.865 272.137C246.145 271.169 247.194 270.211 248.012 269.261L248.154 269.093H313.538ZM402.483 306.986C400.317 306.825 398.085 306.742 395.789 306.736L394.617 306.74L395.056 306.717C397.828 306.585 400.304 306.674 402.483 306.986Z" fill="#33343E"/>
<path fill-rule="evenodd" clip-rule="evenodd" d="M303.201 141.034C313.9 144.536 323.014 142.943 328.951 147.625C339.578 156.005 340.658 188.508 342.303 201.713C343.948 214.918 345.604 232.471 349.947 238.672C352.8 242.744 371.769 257.633 406.856 283.337C407.755 283.995 408.919 284.097 409.908 283.604C412.264 282.429 415.724 281.842 420.286 281.842C428.706 281.842 438.332 282.343 444.247 278.264C450.162 274.184 448.518 283.515 444.247 285.946C441.399 287.568 439.186 288.654 437.607 289.207C443.365 291.211 449.473 291.541 455.932 290.199C465.62 288.185 463.219 293.818 454.605 295.296C448.863 296.282 443.471 297.006 438.431 297.469C426.787 303.814 419.187 306.986 415.629 306.986C412.071 306.986 406.598 304.43 399.212 299.319L361.487 281.612C341.123 272.054 325.716 253.599 319.289 231.066L319.191 230.724L303.201 141.034Z" fill="#FFA798"/>
<path opacity="0.5" fill-rule="evenodd" clip-rule="evenodd" d="M324.407 185.53C321.537 191.518 317.915 196.033 313.542 199.073L319.185 230.723L319.282 231.066C324.366 248.888 335.068 264.16 349.396 274.495C330.266 254.314 326.334 238.701 328.289 221.501L328.35 220.98C329.996 207.29 328.682 195.473 324.407 185.53Z" fill="#E08F81"/>
<path fill-rule="evenodd" clip-rule="evenodd" d="M441.268 296.161C442.742 295.519 444.013 294.498 445.079 293.095L449.868 286.014C450.753 284.706 452.081 283.808 453.576 283.507C454.235 283.375 454.87 283.831 454.996 284.526C455.044 284.791 455.012 285.064 454.904 285.308L450.222 295.918C448.891 298.935 446.369 301.18 443.327 302.055L438.671 303.396C437.365 306.948 433.462 308.418 426.964 307.805C423.717 310.244 418.383 309.665 410.962 306.069" fill="#FFA698"/>
<path d="M441.268 296.161C442.742 295.519 444.013 294.498 445.079 293.095L449.868 286.014C450.753 284.706 452.081 283.808 453.576 283.507C454.235 283.375 454.87 283.831 454.996 284.526C455.044 284.791 455.012 285.064 454.904 285.308L450.222 295.918C448.891 298.935 446.369 301.18 443.327 302.055L438.671 303.396C437.365 306.948 433.462 308.418 426.964 307.805C423.717 310.244 418.383 309.665 410.962 306.069" stroke="#CE7768"/>
<path fill-rule="evenodd" clip-rule="evenodd" d="M438.681 303.396L444.315 288.006C444.634 287.134 444.223 286.154 443.398 285.817C443.104 285.698 442.783 285.672 442.476 285.743C440.644 286.168 439.117 287.494 438.367 289.308L433.444 301.217L428.091 303.396" fill="#FFA698"/>
<path d="M438.681 303.396L444.315 288.006C444.634 287.134 444.223 286.154 443.398 285.817C443.104 285.698 442.783 285.672 442.476 285.743C440.644 286.168 439.117 287.494 438.367 289.308L433.444 301.217L428.091 303.396" stroke="#CE7768"/>
<path fill-rule="evenodd" clip-rule="evenodd" d="M426.975 307.805L434.258 295.852C434.593 295.302 434.443 294.569 433.922 294.215C433.669 294.044 433.361 293.986 433.068 294.056C431.323 294.473 429.728 295.41 428.474 296.757L423.178 302.445C420.43 301.24 416.361 300.637 410.973 300.637" fill="#FFA698"/>
<path d="M426.975 307.805L434.258 295.852C434.593 295.302 434.443 294.569 433.922 294.215C433.669 294.044 433.361 293.986 433.068 294.056C431.323 294.473 429.728 295.41 428.474 296.757L423.178 302.445C420.43 301.24 416.361 300.637 410.973 300.637" stroke="#CE7768"/>
<path d="M437.61 289.207C430.417 292.526 422.908 293.226 415.083 291.305" stroke="#CE7768" stroke-linecap="round"/>
<path d="M437.61 289.207L422.803 297.634" stroke="#CE7768" stroke-linecap="round"/>
<path fill-rule="evenodd" clip-rule="evenodd" d="M260.512 109.302C251.005 131.087 251.005 146.673 260.512 156.058C274.771 170.136 271.113 115.472 269.411 110.431C268.276 107.07 265.31 106.694 260.512 109.302Z" fill="#222652"/>
<path fill-rule="evenodd" clip-rule="evenodd" d="M298.427 109.302C307.933 131.087 307.933 146.673 298.427 156.058C284.167 170.136 287.826 115.472 289.527 110.431C290.662 107.07 293.628 106.694 298.427 109.302Z" fill="#222652"/>
<path fill-rule="evenodd" clip-rule="evenodd" d="M273.18 134.975C264.987 139.289 259.15 142.072 255.67 143.324C245.403 147.018 237.581 147.954 232.625 151.273C221.412 158.783 218.851 188.507 217.206 201.712C215.561 214.918 213.904 232.471 209.561 238.672C206.699 242.76 188.636 257.446 155.373 282.73C154.666 283.267 153.776 283.461 152.926 283.263C148.852 282.316 144.284 281.842 139.222 281.842C130.803 281.842 121.177 282.343 115.262 278.264C109.347 274.184 110.991 283.514 115.262 285.946C118.109 287.568 120.323 288.654 121.902 289.207C116.144 291.21 110.036 291.541 103.577 290.199C93.8886 288.185 96.2901 293.818 104.903 295.296C110.646 296.282 116.037 297.006 121.078 297.469C132.722 303.813 140.322 306.986 143.88 306.986C147.438 306.986 152.91 304.43 160.297 299.319L198.022 281.612C218.385 272.054 233.793 253.599 240.22 231.066L240.318 230.724C245.542 242.233 248.155 255.023 248.155 269.093C254.178 280.347 264.463 285.974 279.009 285.974C293.555 285.974 305.065 280.347 313.539 269.093C311.697 253.307 312.58 242.47 316.187 236.58C321.597 227.745 328.579 212.443 318.665 195.081C312.056 183.506 310.347 166.254 313.539 143.324C304.525 141.902 297.141 139.446 291.388 135.957L273.18 134.975Z" fill="#FFA798"/>
<path opacity="0.5" fill-rule="evenodd" clip-rule="evenodd" d="M230.728 183.057C233.696 187.123 237.455 190.143 242.006 192.119L242.463 192.313L257.807 201.199L244.256 241.216C243.262 237.908 242.077 234.694 240.702 231.572L240.323 230.723L240.225 231.066C236.389 244.514 229.355 256.509 219.977 266.028C229.279 253.062 234.865 236.033 232.21 224.376L232.123 224.009C229.142 211.844 228.677 198.193 230.728 183.057Z" fill="#E08F81"/>
<path fill-rule="evenodd" clip-rule="evenodd" d="M268.773 125.074H292.191V148.473C292.191 155.302 286.949 160.837 280.482 160.837C274.016 160.837 268.773 155.302 268.773 148.473V125.074Z" fill="#FFA798"/>
<path fill-rule="evenodd" clip-rule="evenodd" d="M292.191 125.074V127.658C289.345 134.528 281.539 138.038 268.774 138.186L268.773 125.074H292.191Z" fill="#E08F81"/>
<path fill-rule="evenodd" clip-rule="evenodd" d="M257.237 100.316C256.401 84.4722 257.939 74.0883 261.849 69.1647C267.716 61.7794 273.452 59.6616 283.578 60.8954C293.703 62.1292 301.11 69.3092 302.535 76.5517C303.485 81.3801 303.732 88.7527 303.274 98.6695C300.374 106.827 298.924 110.906 298.924 110.906C298.924 110.906 285.745 108.853 259.386 104.746L257.237 100.316Z" fill="#222652"/>
<path fill-rule="evenodd" clip-rule="evenodd" d="M281.74 71.7595C272.163 71.7595 262.612 72.9571 262.23 85.9677C261.975 94.6415 261.384 99.2592 260.457 99.821C258.858 96.5261 257.408 95.0428 256.106 95.3711C254.154 95.8636 253.357 99.2414 254.4 102.683C255.444 106.125 258.828 113.534 262.62 113.534C264.677 122.459 269.167 128.789 276.091 132.525C278.696 133.654 280.886 134.081 282.659 133.808C285.318 133.398 292.613 131.839 298.615 113.534C300.462 113.31 301.843 112.114 302.76 109.944C304.134 106.69 306.047 102.683 305.983 98.6819C305.92 94.6806 301.726 92.9631 300.113 98.6819C299.334 96.498 298.944 92.2599 298.944 85.9677C298.944 76.5295 291.317 71.7595 281.74 71.7595Z" fill="#FFA798"/>
<path d="M266.946 91.5925C269.581 89.7139 273.004 89.2442 277.215 90.1835" stroke="#3E3E49" stroke-width="2" stroke-linecap="round"/>
<path d="M294.489 91.5925C291.854 89.7139 288.431 89.2442 284.22 90.1835" stroke="#3E3E49" stroke-width="2" stroke-linecap="round"/>
<path d="M284.368 96.292C287.449 97.7429 290.604 97.7429 293.835 96.292M268.296 96.292C271.376 97.7429 274.531 97.7429 277.762 96.292" stroke="#CE7768" stroke-linecap="round"/>
<path fill-rule="evenodd" clip-rule="evenodd" d="M276.59 108.499C279.383 110.484 281.982 110.484 284.384 108.499C283.359 110.538 282.093 111.557 280.587 111.557C279.082 111.557 277.749 110.538 276.59 108.499Z" fill="#E08F80"/>
<path opacity="0.3" fill-rule="evenodd" clip-rule="evenodd" d="M273.842 117.193C278.434 119.559 283.026 119.559 287.619 117.193C285.387 118.864 282.939 119.671 280.276 119.615C277.612 119.559 275.468 118.751 273.842 117.193Z" fill="white"/>
<path d="M273.842 117.193C278.434 119.348 283.026 119.348 287.619 117.193" stroke="#CE7768" stroke-linecap="round"/>
<path d="M258.205 98.3452C260.425 101.599 261.166 104.485 260.425 107.002" stroke="#CE7768" stroke-linecap="round"/>
<path d="M260.696 104.949L256.956 102.674" stroke="#CE7768" stroke-linecap="round"/>
<path d="M302.308 98.345C300.087 101.599 299.347 104.485 300.087 107.002" stroke="#CE7768" stroke-linecap="round"/>
<path d="M299.815 104.95L303.556 102.675" stroke="#CE7768" stroke-linecap="round"/>
<path fill-rule="evenodd" clip-rule="evenodd" d="M293.858 72.589C286.508 82.9281 275.458 88.0976 260.706 88.0976L263.787 72.589L279.969 64.2507L293.858 72.589Z" fill="#222652"/>
<path fill-rule="evenodd" clip-rule="evenodd" d="M291.447 70.905C292.482 75.1828 293.284 78.1591 293.854 79.834C295.605 84.9813 298.964 88.9303 299.822 94.3323L298.738 72.5114L291.447 70.905Z" fill="#222652"/>
<path d="M292.174 73.5403C284.725 85.0317 274.748 89.8842 262.243 88.0979" stroke="#222652"/>
<path fill-rule="evenodd" clip-rule="evenodd" d="M260.091 141.491L259.772 143.537L259.348 146.321L259.051 148.344L258.77 150.312L258.507 152.224L258.26 154.08L258.105 155.287L257.886 157.051L257.75 158.196L257.622 159.316L257.443 160.95L257.333 162.009L257.231 163.043L257.136 164.052L257.049 165.036L256.969 165.996L256.897 166.931L256.832 167.842L256.775 168.727L256.726 169.588L256.684 170.425L256.649 171.236L256.622 172.023L256.603 172.786C256.6 172.911 256.598 173.035 256.596 173.158L256.588 173.883C256.587 174.002 256.587 174.119 256.587 174.236L256.59 174.924L256.601 175.588L256.619 176.227L256.645 176.841L256.678 177.43C256.691 177.623 256.704 177.811 256.719 177.995L256.768 178.535C256.986 180.734 257.399 182.29 258.01 183.203C261.635 188.625 270.63 193.676 297.355 189.324L298.17 189.189C312.578 186.772 312.245 190.467 297.171 200.275L295.998 201.031L294.768 201.811C294.558 201.943 294.346 202.076 294.132 202.21L292.817 203.026L291.445 203.865L290.017 204.727L288.532 205.613L286.99 206.522L285.392 207.455C285.121 207.613 284.847 207.771 284.572 207.93L282.888 208.899C282.603 209.062 282.315 209.226 282.025 209.392L249.021 192.611L254.467 143.748C254.864 143.611 255.266 143.469 255.671 143.323L256.243 143.112L256.853 142.875L257.504 142.612L258.194 142.324L258.923 142.01L259.692 141.671C259.824 141.612 259.957 141.552 260.091 141.491Z" fill="#E08F81"/>
<path opacity="0.5" fill-rule="evenodd" clip-rule="evenodd" d="M264.692 211.956L314.17 241.329C313.904 242.239 313.672 243.212 313.474 244.246C302.289 251.998 288.546 256.528 272.246 257.835L271.467 257.895C246.111 259.761 258.863 272.918 286.527 285.434C284.123 285.794 281.62 285.973 279.02 285.973C264.474 285.973 254.189 280.347 248.166 269.093C248.166 258.374 246.649 248.398 243.617 239.165L264.692 211.956Z" fill="#E08F80"/>
<path fill-rule="evenodd" clip-rule="evenodd" d="M118.25 296.16C117.38 295.911 116.107 294.889 114.431 293.095L109.642 286.014C108.757 284.706 107.429 283.808 105.934 283.507C105.275 283.374 104.639 283.83 104.514 284.526C104.466 284.79 104.498 285.064 104.606 285.308L109.288 295.917C110.619 298.935 113.141 301.18 116.182 302.055L120.839 303.395C122.145 306.947 126.047 308.417 132.546 307.805C135.793 310.243 141.127 309.665 148.548 306.069" fill="#FFA698"/>
<path d="M118.25 296.16C117.38 295.911 116.107 294.889 114.431 293.095L109.642 286.014C108.757 284.706 107.429 283.808 105.934 283.507C105.275 283.374 104.639 283.83 104.514 284.526C104.466 284.79 104.498 285.064 104.606 285.308L109.288 295.917C110.619 298.935 113.141 301.18 116.182 302.055L120.839 303.395C122.145 306.947 126.047 308.417 132.546 307.805C135.793 310.243 141.127 309.665 148.548 306.069" stroke="#CE7768"/>
<path fill-rule="evenodd" clip-rule="evenodd" d="M120.828 303.395L115.194 288.005C114.875 287.134 115.286 286.154 116.111 285.817C116.405 285.697 116.726 285.671 117.033 285.742C118.864 286.167 120.392 287.493 121.142 289.308L126.065 301.216L131.418 303.395" fill="#FFA698"/>
<path d="M120.828 303.395L115.194 288.005C114.875 287.134 115.286 286.154 116.111 285.817C116.405 285.697 116.726 285.671 117.033 285.742C118.864 286.167 120.392 287.493 121.142 289.308L126.065 301.216L131.418 303.395" stroke="#CE7768"/>
<path fill-rule="evenodd" clip-rule="evenodd" d="M132.557 307.805L125.274 295.852C124.939 295.302 125.09 294.569 125.61 294.215C125.863 294.044 126.171 293.986 126.464 294.056C128.209 294.473 129.804 295.41 131.058 296.757L136.355 302.445C139.102 301.24 143.171 300.637 148.56 300.637" fill="#FFA698"/>
<path d="M132.557 307.805L125.274 295.852C124.939 295.302 125.09 294.569 125.61 294.215C125.863 294.044 126.171 293.986 126.464 294.056C128.209 294.473 129.804 295.41 131.058 296.757L136.355 302.445C139.102 301.24 143.171 300.637 148.56 300.637" stroke="#CE7768"/>
<path d="M252.656 144.35C249.084 162.639 246.132 173.82 243.805 178.124C232.533 198.978 232.907 206.134 234.191 214.667C236.609 230.73 241.36 227.871 245.577 246.043C269.277 255.058 291.826 254.831 313.223 245.361C314.803 239.735 317.14 234.062 320.234 228.343C327.214 214.667 324.566 203.54 318.657 189.855C314.643 180.558 312.309 164.908 311.655 142.905L304.363 141.385C305.513 162.567 305.479 174.814 304.262 178.124C302.384 183.229 301.303 191.756 280.256 191.756C259.209 191.756 254.467 185.188 254.787 175.669C254.992 169.594 256.527 158.265 259.433 141.762L252.656 144.35Z" fill="#FFFBE9"/>
<path d="M316.32 236.518C315.084 239.479 314.053 242.426 313.229 245.362C291.832 254.831 269.283 255.059 245.583 246.044C245.308 244.858 245.03 243.762 244.752 242.744L244.512 241.891C244.312 241.195 244.112 240.538 243.911 239.915L243.67 239.184L243.429 238.485C243.389 238.371 243.349 238.258 243.308 238.146L243.067 237.491C243.027 237.384 242.987 237.278 242.946 237.173C251.02 241.242 261.476 243.531 274.312 244.043C286.949 244.547 300.866 242.07 316.064 236.611L316.32 236.518Z" fill="#E45A5A"/>
<path d="M147.798 293.418C140.986 295.433 132.353 294.029 121.898 289.206C131.983 295.461 137.551 298.589 138.601 298.589" stroke="#CE7768" stroke-linecap="round"/>
</svg>
