<svg width="32" height="32" viewBox="0 0 32 32" fill="none" xmlns="http://www.w3.org/2000/svg">
<path d="M14.2966 2.24856C14.8813 0.377216 17.5298 0.377216 18.1145 2.24856L20.3811 9.50221C20.642 10.3372 21.4152 10.9057 22.29 10.9057H29.7859C31.7044 10.9057 32.5222 13.345 30.9915 14.5015L24.7945 19.1834C24.1207 19.6924 23.8393 20.5697 24.0911 21.3756L26.4261 28.8486C27.0062 30.7051 24.8634 32.2133 23.3115 31.0409L17.4112 26.5831C16.6978 26.0442 15.7133 26.0442 14.9999 26.5831L9.09957 31.0409C7.54769 32.2133 5.4049 30.7051 5.98498 28.8486L8.32002 21.3756C8.57186 20.5697 8.29039 19.6924 7.61665 19.1834L1.41961 14.5015C-0.111115 13.345 0.70675 10.9057 2.62522 10.9057H10.1211C10.9959 10.9057 11.7692 10.3372 12.0301 9.50221L14.2966 2.24856Z" fill="#F5BF00"/>
</svg>
