<svg width="177" height="124" viewBox="0 0 177 124" fill="none" xmlns="http://www.w3.org/2000/svg">
<path d="M48.1165 18.4285C29.1835 32.8975 17.8902 93.8053 53.3904 94.2378C72.0769 94.4654 105.314 106.489 127.227 117.65C148.534 128.502 143.798 69.24 121.953 41.8408C100.107 14.4415 67.0495 3.95944 48.1165 18.4285Z" fill="#D5EFC8"/>
<path d="M136.62 123.673C135.013 123.673 133.248 123.193 131.355 122.229L131.518 121.923C135.909 124.159 139.437 123.761 142.004 120.739C146.693 115.221 147.684 101.367 144.589 84.5839C141.34 66.9613 134.208 49.9286 125.512 39.0217C101.646 9.08818 65.4228 -2.42016 44.7636 13.3689L44.5465 13.0962C65.3587 -2.80962 101.804 8.72538 125.79 38.8091C134.52 49.7582 141.678 66.8472 144.937 84.5225C148.049 101.403 147.029 115.365 142.276 120.96C140.741 122.766 138.83 123.673 136.62 123.673Z" fill="#D5EFC8"/>
<path d="M141.295 63.2346H154.236V57.6382H141.295V63.2346Z" fill="#BBCEAF"/>
<path d="M133.785 55.8927H146.726V50.2962H133.785V55.8927Z" fill="#BBCEAF"/>
<path d="M125.979 63.2346H138.92V57.6382H125.979V63.2346Z" fill="#BBCEAF"/>
<path d="M136.462 70.5774H149.402V64.9809H136.462V70.5774Z" fill="#BBCEAF"/>
<path d="M121.721 70.5774H134.662V64.9809H121.721V70.5774Z" fill="#BBCEAF"/>
<path d="M94.9141 13.9346H107.855V8.33814H94.9141V13.9346Z" fill="#BBCEAF"/>
<path d="M87.4044 6.59254H100.345V0.996094H87.4044V6.59254Z" fill="#BBCEAF"/>
<path d="M79.598 13.9346H92.5386V8.33814H79.598V13.9346Z" fill="#BBCEAF"/>
<path d="M90.0807 21.2769H103.021V15.6805H90.0807V21.2769Z" fill="#BBCEAF"/>
<path d="M75.3398 21.2769H88.2804V15.6805H75.3398V21.2769Z" fill="#BBCEAF"/>
<path d="M12.9023 118.052C12.9023 118.086 13.2589 118.004 13.2547 118.042C13.2547 118.042 9.74622 123.673 9.36115 123.673C9.32398 123.672 9.28689 123.67 9.25005 123.665C9.04434 123.636 8.85861 123.529 8.73356 123.366C8.6085 123.204 8.55431 123 8.58286 122.798L11.3199 118.042L12.9023 118.052ZM30.7984 118.052C30.7984 118.086 30.4419 118.004 30.446 118.042C30.446 118.042 33.9546 123.673 34.3396 123.673C34.3768 123.672 34.4139 123.67 34.4507 123.665C34.6564 123.636 34.8422 123.529 34.9672 123.366C35.0923 123.204 35.1465 123 35.1179 122.798L32.3809 118.042L30.7984 118.052Z" fill="#935B50"/>
<path d="M36.2774 105.394H7.31063V93.3661C7.31063 93.2562 7.33275 93.1473 7.37574 93.0457C7.41872 92.9441 7.48173 92.8518 7.56116 92.774C7.64058 92.6962 7.73487 92.6345 7.83865 92.5925C7.94242 92.5504 8.05365 92.5287 8.16598 92.5287H35.422C35.6489 92.5287 35.8664 92.6169 36.0268 92.774C36.1872 92.931 36.2774 93.144 36.2774 93.3661L36.2774 105.394Z" fill="#D6694B"/>
<path d="M11.32 118.259H8.16802C8.05569 118.259 7.94447 118.238 7.84069 118.196C7.73691 118.153 7.64262 118.092 7.5632 118.014C7.48377 117.936 7.42076 117.844 7.37778 117.742C7.33479 117.641 7.31267 117.532 7.31267 117.422V105.392H36.279V117.422C36.279 117.532 36.2568 117.641 36.2139 117.742C36.1709 117.844 36.1079 117.936 36.0284 118.014C35.949 118.092 35.8547 118.153 35.7509 118.196C35.6472 118.238 35.5359 118.259 35.4236 118.259H33.251" fill="#D6694B"/>
<path d="M34.1619 93.8539H9.4255C8.95314 93.8539 8.57021 94.2288 8.57021 94.6912V103.232C8.57021 103.694 8.95314 104.069 9.4255 104.069H34.1619C34.6343 104.069 35.0172 103.694 35.0172 103.232V94.6912C35.0172 94.2288 34.6343 93.8539 34.1619 93.8539Z" fill="#E19974"/>
<path d="M21.7939 100.373C22.5983 100.373 23.2503 99.7411 23.2503 98.9614C23.2503 98.1817 22.5983 97.5497 21.7939 97.5497C20.9895 97.5497 20.3375 98.1817 20.3375 98.9614C20.3375 99.7411 20.9895 100.373 21.7939 100.373Z" fill="#935B50"/>
<path d="M34.1619 106.719H9.4255C8.95314 106.719 8.57021 107.094 8.57021 107.557V116.097C8.57021 116.56 8.95314 116.934 9.4255 116.934H34.1619C34.6343 116.934 35.0172 116.56 35.0172 116.097V107.557C35.0172 107.094 34.6343 106.719 34.1619 106.719Z" fill="#E19974"/>
<path d="M21.7939 113.238C22.5983 113.238 23.2503 112.606 23.2503 111.827C23.2503 111.047 22.5983 110.415 21.7939 110.415C20.9895 110.415 20.3375 111.047 20.3375 111.827C20.3375 112.606 20.9895 113.238 21.7939 113.238Z" fill="#935B50"/>
<path d="M160.826 114.258C160.496 112.352 160.305 110.425 160.256 108.493C160.199 106.558 160.277 104.622 160.49 102.698C160.71 100.773 161.116 98.8719 161.7 97.0206C162.006 96.1 162.367 95.1976 162.78 94.3179C163.212 93.4485 163.706 92.6099 164.258 91.8083C163.226 93.451 162.422 95.2209 161.867 97.0714C161.595 97.9957 161.35 98.9274 161.16 99.8714C160.974 100.816 160.826 101.767 160.715 102.724C160.496 104.638 160.4 106.564 160.43 108.489C160.44 109.453 160.478 110.416 160.544 111.378C160.607 112.34 160.69 113.302 160.826 114.258Z" fill="#50661A"/>
<path d="M160.826 99.7995C160.826 99.7995 150.455 101.078 145.941 96.7212C142.591 93.4877 145.777 87.9225 150.368 88.9279C153.441 89.601 157.232 92.2755 160.826 99.7995Z" fill="#5E7C24"/>
<path d="M160.826 99.7995C159.37 99.3656 157.937 98.8575 156.527 98.2951C155.117 97.7311 153.734 97.1041 152.38 96.4143C151.706 96.0647 151.045 95.6923 150.396 95.297C149.744 94.9077 149.115 94.4821 148.513 94.0222C147.907 93.5651 147.34 93.0604 146.818 92.5132C146.299 91.9627 145.878 91.3306 145.573 90.6434C145.909 91.3105 146.358 91.9174 146.9 92.4387C147.432 92.9655 148.007 93.4495 148.619 93.886C149.844 94.761 151.137 95.5406 152.486 96.2178C153.822 96.9217 155.203 97.5419 156.594 98.138C157.29 98.4355 157.992 98.7215 158.698 98.9957C159.402 99.2766 160.11 99.5479 160.826 99.7995Z" fill="#50661A"/>
<path d="M149.58 94.665L149.59 93.1669C149.587 92.669 149.59 92.1719 149.561 91.6764C149.545 91.1819 149.5 90.6888 149.427 90.1993L149.356 89.8364C149.331 89.7157 149.288 89.601 149.255 89.4817C149.218 89.3644 149.172 89.2498 149.119 89.1388C149.057 89.0303 148.989 88.9257 148.915 88.8255C149.276 89.1944 149.514 89.6621 149.598 90.1666C149.7 90.6613 149.763 91.1629 149.788 91.667C149.798 92.1698 149.798 92.6721 149.764 93.1726C149.733 93.6732 149.671 94.1715 149.58 94.665ZM144.699 94.665C145.308 94.5611 145.909 94.4754 146.497 94.3429C146.788 94.2785 147.074 94.1905 147.35 94.08C147.633 93.9822 147.87 93.7868 148.017 93.5302C147.979 93.6831 147.907 93.8258 147.806 93.9477C147.705 94.0697 147.577 94.1677 147.431 94.2346C147.154 94.3816 146.857 94.4909 146.549 94.5595C145.942 94.695 145.317 94.7306 144.699 94.665ZM146.574 97.2666C147.387 97.1648 148.191 97.0065 148.981 96.7928C149.369 96.687 149.74 96.531 150.086 96.3289C150.439 96.1337 150.702 95.8127 150.821 95.4326C150.801 95.6411 150.734 95.8427 150.624 96.0225C150.515 96.2023 150.365 96.3558 150.187 96.4716C149.841 96.7127 149.456 96.8934 149.047 97.0058C148.244 97.2336 147.407 97.3219 146.574 97.2666ZM152.373 96.2868C152.546 95.7906 152.704 95.2926 152.849 94.7926C152.99 94.2913 153.128 93.7898 153.22 93.2793C153.45 92.2648 153.498 91.219 153.362 90.1885C153.523 90.693 153.605 91.2185 153.604 91.747C153.596 92.2754 153.542 92.8022 153.443 93.3217C153.334 93.8375 153.191 94.346 153.015 94.8439C152.841 95.3411 152.627 95.8236 152.373 96.2868ZM150.821 99.225C151.151 99.14 151.471 99.0339 151.785 98.9204C152.096 98.8087 152.396 98.669 152.682 98.5031C152.964 98.3403 153.219 98.1374 153.44 97.901C153.65 97.6485 153.811 97.3598 153.913 97.0496C153.894 97.3928 153.778 97.7241 153.58 98.0077C153.368 98.2845 153.103 98.5177 152.799 98.694C152.499 98.8673 152.176 98.9989 151.839 99.085C151.507 99.1759 151.165 99.223 150.821 99.225ZM156.076 92.4744C156.303 92.8919 156.467 93.3392 156.564 93.8024C156.662 94.2685 156.7 94.7447 156.678 95.2201C156.65 95.6969 156.548 96.1668 156.373 96.6129C156.2 97.0558 155.952 97.4665 155.638 97.8277C155.875 97.4258 156.066 96.9997 156.208 96.5569C156.351 96.1199 156.433 95.6659 156.451 95.2074C156.481 94.7482 156.461 94.2873 156.392 93.8322C156.326 93.3717 156.22 92.9176 156.076 92.4744ZM155.405 99.7994C155.782 99.6144 156.153 99.4558 156.508 99.2693C156.87 99.091 157.205 98.8645 157.503 98.5963C157.319 98.9779 157.005 99.2852 156.615 99.4658C156.241 99.6623 155.829 99.7762 155.405 99.7994ZM158.688 95.9007C158.894 96.4043 159.015 96.9374 159.045 97.4791C159.064 97.752 159.05 98.0261 159.005 98.296C158.969 98.5703 158.86 98.8305 158.688 99.0503C158.777 98.8012 158.824 98.54 158.828 98.2764C158.84 98.0148 158.837 97.7528 158.818 97.4915C158.79 96.9656 158.725 96.4403 158.688 95.9007Z" fill="#50661A"/>
<path d="M160.449 99.7483C160.449 99.7483 152.368 93.256 152.495 87.0513C152.589 82.4469 158.907 80.8842 161.319 84.8384C162.933 87.4857 163.556 92.0191 160.449 99.7483Z" fill="#C4CE6E"/>
<path d="M160.449 99.7483C159.749 98.423 159.12 97.0632 158.563 95.6744C158.001 94.2868 157.51 92.873 157.09 91.4333C156.887 90.7125 156.71 89.9848 156.559 89.2503C156.4 88.5171 156.285 87.7751 156.217 87.0285C156.145 86.2808 156.135 85.5286 156.188 84.7794C156.244 84.0299 156.434 83.2957 156.749 82.6103C156.501 83.3115 156.37 84.0474 156.361 84.7896C156.343 85.5285 156.385 86.2677 156.487 87C156.688 88.4683 157.003 89.9195 157.43 91.3406C157.821 92.7736 158.311 94.18 158.816 95.5812C159.068 96.2821 159.333 96.9788 159.61 97.6715C159.876 98.3688 160.163 99.0577 160.449 99.7483Z" fill="#8B9D36"/>
<path d="M156.522 88.2236C157.239 87.5017 157.977 86.8218 158.681 86.1123C159.031 85.7577 159.37 85.3941 159.688 85.0151C159.842 84.8236 159.985 84.6234 160.115 84.4157C160.18 84.3116 160.238 84.2031 160.287 84.0911C160.33 83.9745 160.366 83.8557 160.395 83.7354C160.395 84.2524 160.225 84.7557 159.912 85.1719C159.623 85.5936 159.296 85.9888 158.934 86.3527C158.216 87.0763 157.406 87.7052 156.522 88.2236ZM153.166 84.7543C153.697 85.0813 154.177 85.4383 154.676 85.76C154.92 85.9203 155.175 86.0645 155.439 86.1915C155.698 86.3308 155.998 86.3804 156.289 86.3323C156.153 86.4231 155.996 86.4808 155.832 86.5005C155.669 86.5203 155.503 86.5015 155.348 86.4459C155.041 86.3564 154.749 86.2225 154.482 86.0485C153.958 85.7095 153.51 85.2691 153.166 84.7543ZM152.526 87.8762C153.212 88.3401 153.865 88.8183 154.564 89.2083C154.904 89.4082 155.267 89.5668 155.646 89.6808C156.026 89.8038 156.439 89.7871 156.807 89.6336C156.643 89.775 156.448 89.8768 156.236 89.9309C156.025 89.9849 155.804 89.9897 155.59 89.9448C155.166 89.8722 154.759 89.7243 154.389 89.5082C154.025 89.3005 153.684 89.0569 153.37 88.7813C153.055 88.5117 152.772 88.208 152.526 87.8762ZM157.241 91.3243C157.72 91.0863 158.188 90.8372 158.654 90.5912C159.117 90.3386 159.577 90.0855 160.02 89.8061C160.463 89.5307 160.892 89.2327 161.303 88.9133C161.713 88.5848 162.094 88.2236 162.443 87.8334C162.2 88.3096 161.877 88.7425 161.487 89.114C161.096 89.4826 160.667 89.8121 160.209 90.0976C159.297 90.6663 158.293 91.0809 157.241 91.3243ZM153.994 92.2417C154.303 92.3958 154.604 92.5413 154.906 92.6754C155.204 92.8101 155.511 92.9216 155.826 93.0089C156.134 93.0954 156.452 93.1412 156.773 93.1451C157.102 93.1294 157.427 93.0614 157.734 92.944C157.478 93.1889 157.152 93.3525 156.799 93.4135C156.442 93.4627 156.078 93.4381 155.732 93.3415C155.392 93.2463 155.07 93.1012 154.775 92.9112C154.48 92.7302 154.216 92.5042 153.994 92.2417ZM162.614 91.3346C162.337 92.2577 161.786 93.0797 161.032 93.6974C160.843 93.8517 160.643 93.9934 160.435 94.1216C160.329 94.1836 160.217 94.2349 160.108 94.2917C160.001 94.3509 159.888 94.3996 159.771 94.4369C159.316 94.6129 158.832 94.7037 158.343 94.7048C158.797 94.574 159.236 94.402 159.657 94.1913C160.069 93.9841 160.454 93.7297 160.805 93.4334C161.16 93.1394 161.488 92.8149 161.785 92.4638C162.087 92.106 162.364 91.7288 162.614 91.3346ZM156.721 95.8954C157.144 95.9944 157.515 96.1358 157.893 96.2565C158.272 96.3882 158.661 96.4894 159.056 96.5592C158.86 96.6577 158.64 96.7051 158.42 96.6967C158.202 96.6898 157.987 96.6518 157.781 96.584C157.578 96.5158 157.384 96.424 157.204 96.3103C157.02 96.1995 156.857 96.0593 156.721 95.8954ZM161.87 95.5478C161.779 95.8067 161.655 96.0535 161.502 96.2823C161.352 96.5128 161.181 96.7291 160.99 96.9286C160.798 97.1321 160.58 97.3101 160.341 97.4582C160.104 97.6194 159.823 97.7083 159.535 97.7138C159.768 97.5841 159.983 97.4258 160.175 97.2427C160.367 97.0667 160.554 96.8845 160.734 96.6916C161.103 96.3148 161.454 95.9178 161.87 95.5478Z" fill="#8B9D36"/>
<path d="M160.206 110.623C160.206 110.623 149.76 110.99 145.661 106.256C142.619 102.743 146.3 97.4784 150.781 98.8808C153.78 99.8197 157.312 102.815 160.206 110.623Z" fill="#C4CE6E"/>
<path d="M160.206 110.623C158.786 110.082 157.395 109.471 156.039 108.79C154.68 108.114 153.356 107.368 152.068 106.565C151.428 106.156 150.804 105.725 150.194 105.272C149.579 104.825 148.992 104.343 148.436 103.828C147.877 103.314 147.361 102.756 146.894 102.16C146.43 101.562 146.076 100.889 145.849 100.171C146.136 100.857 146.535 101.494 147.031 102.056C147.516 102.622 148.047 103.149 148.619 103.631C149.762 104.602 150.979 105.486 152.26 106.275C153.522 107.096 154.84 107.833 156.165 108.556C156.828 108.918 157.498 109.269 158.173 109.609C158.844 109.96 159.525 110.29 160.206 110.623Z" fill="#8B9D36"/>
<path d="M149.473 104.526C149.522 103.52 149.616 102.533 149.664 101.545C149.687 101.052 149.695 100.56 149.677 100.07C149.663 99.8264 149.635 99.5839 149.592 99.3435C149.571 99.2234 149.541 99.1048 149.502 98.9888C149.455 98.8738 149.402 98.7614 149.343 98.6519C149.692 99.0401 149.905 99.5272 149.951 100.042C150.02 100.546 150.041 101.054 150.016 101.561C149.967 102.568 149.785 103.565 149.473 104.526ZM144.611 104.1C145.23 104.001 145.832 103.957 146.423 103.875C146.715 103.837 147.003 103.78 147.287 103.704C147.575 103.641 147.833 103.484 148.019 103.259C147.978 103.416 147.9 103.56 147.791 103.681C147.681 103.802 147.544 103.896 147.39 103.954C147.1 104.086 146.79 104.175 146.473 104.217C145.85 104.303 145.217 104.263 144.611 104.1ZM146.241 106.855C147.07 106.758 147.882 106.694 148.67 106.533C149.06 106.463 149.44 106.346 149.801 106.186C150.169 106.032 150.467 105.753 150.639 105.399C150.612 105.611 150.534 105.814 150.412 105.991C150.29 106.169 150.128 106.316 149.937 106.42C149.57 106.641 149.165 106.794 148.742 106.871C148.328 106.951 147.908 106.99 147.486 106.986C147.068 106.988 146.65 106.944 146.241 106.855ZM152.107 106.386C152.306 105.896 152.488 105.407 152.671 104.92C152.847 104.431 153.021 103.943 153.164 103.447C153.311 102.953 153.431 102.452 153.523 101.946C153.608 101.434 153.65 100.916 153.648 100.398C153.787 100.912 153.838 101.446 153.797 101.977C153.752 102.507 153.654 103.032 153.503 103.543C153.204 104.56 152.732 105.521 152.107 106.386ZM150.293 109.176C150.629 109.092 150.953 109.006 151.27 108.911C151.584 108.819 151.89 108.703 152.185 108.565C152.474 108.43 152.744 108.258 152.987 108.054C153.223 107.828 153.421 107.567 153.572 107.28C153.545 107.63 153.411 107.963 153.188 108.238C152.954 108.506 152.664 108.723 152.339 108.876C152.02 109.024 151.68 109.124 151.331 109.173C150.988 109.228 150.637 109.229 150.293 109.176ZM156.143 102.912C156.558 103.784 156.701 104.757 156.554 105.708C156.516 105.947 156.462 106.182 156.392 106.414C156.355 106.528 156.305 106.64 156.262 106.752C156.222 106.866 156.17 106.976 156.108 107.08C155.886 107.506 155.584 107.888 155.219 108.206C155.47 107.814 155.684 107.4 155.856 106.969C156.025 106.547 156.142 106.107 156.205 105.658C156.273 105.207 156.299 104.751 156.284 104.296C156.269 103.832 156.221 103.37 156.143 102.912ZM154.807 110.149C155.191 109.95 155.565 109.815 155.93 109.661C156.303 109.514 156.663 109.338 157.006 109.134C156.926 109.335 156.793 109.513 156.622 109.649C156.454 109.785 156.267 109.896 156.067 109.979C155.869 110.059 155.661 110.116 155.449 110.147C155.237 110.183 155.02 110.184 154.807 110.149ZM158.433 106.553C158.539 106.806 158.613 107.071 158.653 107.342C158.696 107.612 158.714 107.885 158.706 108.158C158.7 108.435 158.657 108.71 158.577 108.976C158.508 109.25 158.358 109.499 158.146 109.69C158.233 109.441 158.287 109.183 158.307 108.922C158.332 108.665 158.35 108.407 158.354 108.146C158.376 107.625 158.371 107.1 158.433 106.553Z" fill="#8B9D36"/>
<path d="M160.823 100.487C160.823 100.487 171.25 101.227 175.522 96.6427C178.692 93.2405 175.21 87.8479 170.681 89.0893C167.648 89.9204 164.007 92.7872 160.823 100.487Z" fill="#5E7C24"/>
<path d="M160.823 100.487C161.525 100.198 162.217 99.8908 162.905 99.5739C163.595 99.2624 164.28 98.9407 164.96 98.6086C166.317 97.9413 167.663 97.2505 168.959 96.4785C170.27 95.7325 171.519 94.8871 172.695 93.95C173.282 93.4824 173.83 92.9694 174.333 92.4158C174.846 91.8673 175.261 91.238 175.561 90.5545C175.294 91.2565 174.907 91.9095 174.418 92.486C173.927 93.0595 173.388 93.5927 172.808 94.0805C172.231 94.5709 171.626 95.0285 170.996 95.451C170.37 95.8789 169.73 96.2849 169.076 96.6693C167.763 97.4294 166.416 98.1269 165.036 98.762C163.657 99.3965 162.254 99.978 160.823 100.487Z" fill="#50661A"/>
<path d="M171.777 94.7774C171.659 94.2894 171.571 93.795 171.513 93.2967C171.451 92.7987 171.424 92.297 171.407 91.7944C171.405 91.2897 171.441 90.7856 171.516 90.2863C171.572 89.7782 171.785 89.2988 172.126 88.9118C172.057 89.0156 171.995 89.1236 171.939 89.2351C171.892 89.3487 171.852 89.4655 171.821 89.5846C171.795 89.7054 171.758 89.8222 171.74 89.9441L171.689 90.3101C171.642 90.8027 171.624 91.2975 171.634 91.7921C171.632 92.2883 171.662 92.7846 171.686 93.282L171.777 94.7774ZM176.651 94.525C176.037 94.6225 175.411 94.6193 174.798 94.5154C174.487 94.4628 174.184 94.369 173.899 94.2365C173.751 94.1772 173.617 94.086 173.51 93.9694C173.402 93.8529 173.322 93.7141 173.277 93.5634C173.437 93.812 173.684 93.995 173.972 94.078C174.254 94.174 174.543 94.2471 174.838 94.2964C175.432 94.3984 176.037 94.4528 176.651 94.525ZM174.919 97.22C174.09 97.3183 173.249 97.2735 172.435 97.0875C172.021 96.9964 171.626 96.8358 171.268 96.6129C171.084 96.5065 170.926 96.361 170.807 96.1871C170.688 96.0133 170.61 95.8154 170.579 95.6082C170.718 95.9817 170.998 96.2886 171.361 96.4652C171.717 96.6492 172.097 96.7858 172.49 96.8714C173.29 97.0439 174.102 97.1604 174.919 97.22ZM169.075 96.5415C168.797 96.0921 168.556 95.6213 168.356 95.1338C168.154 94.6457 167.984 94.1453 167.847 93.6359C167.72 93.1222 167.637 92.5989 167.601 92.0716C167.572 91.5439 167.625 91.0149 167.759 90.5028C167.679 91.5389 167.783 92.5808 168.067 93.5819C168.186 94.087 168.352 94.5806 168.519 95.074C168.689 95.5666 168.875 96.0558 169.075 96.5415ZM170.784 99.3953C170.44 99.4111 170.095 99.3818 169.759 99.3082C169.418 99.2396 169.089 99.1249 168.78 98.9673C168.467 98.807 168.189 98.5878 167.963 98.3224C167.749 98.0494 167.616 97.7245 167.578 97.3829C167.697 97.6873 167.873 97.9674 168.097 98.2086C168.33 98.4333 168.596 98.6227 168.886 98.7707C169.18 98.9215 169.488 99.0455 169.805 99.141C170.124 99.2381 170.449 99.3275 170.784 99.3953ZM165.172 92.9259C165.052 93.3759 164.971 93.8349 164.929 94.2981C164.885 94.7562 164.89 95.2175 164.945 95.6745C164.988 96.1314 165.094 96.5806 165.26 97.0096C165.426 97.4444 165.639 97.86 165.898 98.2491C165.565 97.9047 165.295 97.5073 165.098 97.0741C164.9 96.6376 164.772 96.1737 164.719 95.6989C164.671 95.2254 164.683 94.7478 164.756 94.2773C164.828 93.8097 164.968 93.3546 165.172 92.9259ZM166.237 100.206C165.813 100.205 165.394 100.112 165.011 99.9355C164.612 99.7752 164.282 99.4846 164.077 99.1131C164.389 99.3655 164.736 99.5743 165.107 99.7337C165.472 99.9015 165.85 100.041 166.237 100.206ZM162.748 96.4826C162.74 97.0233 162.704 97.5512 162.704 98.0779C162.7 98.3397 162.71 98.6015 162.736 98.8622C162.755 99.1252 162.816 99.3836 162.918 99.6278C162.735 99.4172 162.612 99.1629 162.561 98.8908C162.501 98.6237 162.473 98.3506 162.477 98.0771C162.478 97.5347 162.569 96.9961 162.748 96.4826Z" fill="#50661A"/>
<path d="M160.427 110.506C160.427 110.506 170.853 111.247 175.125 106.662C178.296 103.26 174.814 97.8676 170.284 99.1091C167.251 99.9402 163.61 102.807 160.427 110.506Z" fill="#8B9D36"/>
<path d="M160.427 110.506C161.12 110.199 161.813 109.893 162.496 109.566C163.183 109.249 163.865 108.923 164.542 108.586C165.894 107.91 167.238 107.221 168.53 106.446C169.839 105.703 171.088 104.863 172.267 103.934C172.856 103.472 173.407 102.964 173.913 102.416C174.429 101.872 174.851 101.25 175.164 100.574C174.911 101.284 174.532 101.944 174.045 102.525C173.557 103.104 173.021 103.643 172.442 104.136C171.868 104.632 171.263 105.093 170.632 105.517C170.006 105.947 169.366 106.355 168.711 106.742C167.394 107.499 166.043 108.197 164.66 108.824C163.279 109.456 161.866 110.017 160.427 110.506Z" fill="#5E7C24"/>
<path d="M171.38 104.797C171.104 103.826 170.959 102.823 170.948 101.815C170.942 101.307 170.982 100.8 171.069 100.299C171.135 99.7863 171.366 99.3072 171.729 98.9317C171.666 99.0389 171.609 99.1494 171.557 99.2626C171.514 99.3772 171.48 99.4946 171.454 99.6139C171.402 99.8526 171.365 100.094 171.342 100.337C171.306 100.826 171.296 101.318 171.301 101.811C171.312 102.8 171.368 103.791 171.38 104.797ZM176.255 104.545C175.643 104.686 175.009 104.704 174.39 104.596C174.074 104.542 173.768 104.443 173.483 104.3C173.331 104.236 173.197 104.138 173.093 104.013C172.988 103.888 172.915 103.741 172.88 103.583C173.057 103.815 173.309 103.981 173.595 104.054C173.876 104.14 174.162 104.207 174.452 104.256C175.04 104.359 175.64 104.424 176.255 104.545ZM174.523 107.24C174.111 107.315 173.692 107.344 173.274 107.327C172.853 107.315 172.434 107.262 172.024 107.167C171.603 107.074 171.204 106.907 170.845 106.674C170.659 106.562 170.502 106.41 170.387 106.228C170.272 106.047 170.202 105.841 170.183 105.628C170.341 105.987 170.629 106.278 170.991 106.444C171.346 106.617 171.721 106.747 172.108 106.832C172.889 107.02 173.699 107.113 174.523 107.24ZM168.679 106.561C168.087 105.675 167.651 104.698 167.389 103.671C167.258 103.155 167.179 102.627 167.154 102.096C167.133 101.564 167.203 101.032 167.362 100.523C167.34 101.041 167.363 101.56 167.429 102.074C167.502 102.583 167.604 103.088 167.732 103.587C167.856 104.088 168.011 104.582 168.169 105.077C168.334 105.569 168.498 106.065 168.679 106.561ZM170.387 109.415C170.041 109.456 169.691 109.442 169.35 109.374C169.003 109.313 168.667 109.201 168.354 109.042C168.034 108.878 167.753 108.65 167.529 108.374C167.316 108.092 167.195 107.753 167.181 107.403C167.322 107.695 167.509 107.964 167.737 108.197C167.972 108.41 168.235 108.592 168.519 108.736C168.809 108.886 169.111 109.012 169.421 109.115C169.735 109.222 170.055 109.319 170.387 109.415ZM164.775 102.946C164.679 103.401 164.615 103.861 164.582 104.324C164.55 104.779 164.56 105.235 164.611 105.688C164.656 106.139 164.757 106.583 164.91 107.011C165.067 107.447 165.265 107.869 165.501 108.269C165.148 107.939 164.86 107.546 164.655 107.112C164.596 107.006 164.548 106.895 164.512 106.78C164.473 106.665 164.428 106.552 164.395 106.436C164.334 106.203 164.289 105.965 164.26 105.726C164.148 104.77 164.327 103.802 164.775 102.946ZM165.84 110.226C165.626 110.253 165.409 110.245 165.198 110.201C164.988 110.162 164.782 110.098 164.588 110.011C164.39 109.921 164.207 109.804 164.045 109.662C163.879 109.519 163.753 109.337 163.68 109.133C164.016 109.349 164.369 109.538 164.736 109.698C165.095 109.865 165.464 110.013 165.84 110.226ZM162.351 106.503C162.392 107.051 162.368 107.576 162.37 108.098C162.365 108.359 162.373 108.617 162.388 108.874C162.398 109.137 162.443 109.397 162.521 109.648C162.315 109.449 162.175 109.196 162.116 108.919C162.047 108.65 162.014 108.374 162.018 108.097C162.02 107.824 162.048 107.552 162.101 107.284C162.151 107.014 162.235 106.752 162.351 106.503Z" fill="#5E7C24"/>
<path d="M163.911 92.3592C163.911 92.3592 161.02 82.524 164.721 77.4856C167.467 73.7467 173.575 75.97 173.269 80.5656C173.064 83.6422 170.949 87.7214 163.911 92.3592Z" fill="#8B9D36"/>
<path d="M163.911 92.3592C164.103 90.8792 164.372 89.4096 164.719 87.9567C165.061 86.5022 165.48 85.0644 165.965 83.6464C166.215 82.9401 166.491 82.2427 166.793 81.554C167.086 80.8616 167.422 80.1872 167.799 79.5346C168.173 78.8788 168.601 78.2541 169.079 77.6665C169.559 77.0805 170.141 76.5814 170.798 76.1922C170.187 76.6315 169.652 77.1646 169.215 77.7709C168.772 78.3691 168.378 79.0012 168.038 79.6611C167.352 80.9814 166.77 82.3514 166.298 83.7588C165.789 85.156 165.378 86.5864 164.981 88.0205C164.783 88.7378 164.597 89.4586 164.424 90.1829C164.238 90.9046 164.075 91.6315 163.911 92.3592Z" fill="#5E7C24"/>
<path d="M167.357 80.6881C168.366 80.492 169.368 80.342 170.358 80.1487C170.853 80.0517 171.342 79.9404 171.823 79.8048C172.061 79.7327 172.295 79.6472 172.523 79.5487C172.637 79.4992 172.747 79.4418 172.853 79.377C172.955 79.3046 173.054 79.2269 173.148 79.1442C172.848 79.5696 172.416 79.8898 171.917 80.0584C171.435 80.2451 170.936 80.3886 170.427 80.4874C169.417 80.6846 168.385 80.7521 167.357 80.6881ZM166.604 75.9666C166.852 76.5309 167.041 77.0917 167.265 77.6338C167.373 77.9015 167.5 78.1619 167.643 78.4132C167.776 78.6717 167.994 78.8789 168.261 79.0012C168.097 79.0002 167.934 78.9607 167.788 78.8861C167.642 78.8114 167.516 78.7037 167.421 78.5718C167.22 78.3275 167.057 78.055 166.938 77.7635C166.703 77.1931 166.589 76.5816 166.604 75.9666ZM164.268 78.1817C164.564 78.9451 164.825 79.7016 165.174 80.4109C165.338 80.7644 165.546 81.0969 165.792 81.4013C166.033 81.7136 166.382 81.9289 166.774 82.007C166.557 82.0324 166.338 82.0078 166.132 81.9349C165.927 81.8621 165.742 81.7431 165.592 81.5876C165.285 81.2921 165.036 80.9441 164.856 80.5607C164.677 80.1874 164.537 79.7972 164.439 79.3962C164.335 78.9989 164.278 78.5915 164.268 78.1817ZM166.152 83.6403C166.684 83.7108 167.214 83.7655 167.74 83.822C168.268 83.8711 168.794 83.9184 169.32 83.9341C169.845 83.9538 170.37 83.9465 170.894 83.9122C171.422 83.8693 171.945 83.7837 172.458 83.656C171.982 83.9131 171.465 84.0901 170.929 84.1797C170.393 84.2655 169.85 84.2989 169.307 84.2792C168.226 84.2406 167.159 84.0246 166.152 83.6403ZM162.947 82.5921C163.111 82.8904 163.275 83.1774 163.447 83.4559C163.613 83.732 163.802 83.9947 164.011 84.2417C164.214 84.4839 164.449 84.6984 164.711 84.8795C164.991 85.0496 165.298 85.1742 165.619 85.2483C165.266 85.3074 164.903 85.2611 164.577 85.1154C164.255 84.9574 163.969 84.7352 163.74 84.4628C163.516 84.196 163.334 83.8973 163.202 83.5772C163.064 83.2642 162.978 82.9316 162.947 82.5921ZM170.57 86.6342C169.807 87.2399 168.877 87.611 167.898 87.7009C167.653 87.7227 167.406 87.7284 167.16 87.718C167.037 87.7104 166.915 87.6902 166.793 87.6767C166.67 87.6659 166.549 87.6432 166.431 87.6088C165.955 87.5012 165.503 87.3071 165.1 87.0365C165.549 87.1805 166.011 87.2833 166.479 87.3434C166.939 87.4017 167.404 87.4063 167.864 87.3571C168.327 87.3125 168.785 87.2275 169.233 87.1031C169.689 86.9762 170.136 86.8196 170.57 86.6342ZM163.074 87.1156C163.365 87.4318 163.588 87.7544 163.83 88.0638C164.065 88.3826 164.327 88.6821 164.612 88.9594C164.393 88.9313 164.185 88.8485 164.009 88.7189C163.833 88.5924 163.678 88.4415 163.548 88.271C163.42 88.1022 163.314 87.919 163.231 87.7253C163.144 87.5321 163.091 87.326 163.074 87.1156ZM167.516 89.6899C167.29 89.8525 167.046 89.9869 166.786 90.09C166.53 90.1967 166.263 90.2797 165.991 90.3381C165.715 90.399 165.432 90.4243 165.149 90.4133C164.86 90.4143 164.578 90.3317 164.337 90.1758C164.604 90.1986 164.873 90.1879 165.138 90.1439C165.397 90.1054 165.657 90.0596 165.917 90.0004C166.439 89.8954 166.958 89.7633 167.516 89.6899Z" fill="#5E7C24"/>
<path d="M153.425 111.643V113.49C153.423 113.66 153.491 113.824 153.612 113.945C153.734 114.066 153.899 114.135 154.073 114.137H167.046C167.219 114.135 167.385 114.066 167.506 113.945C167.628 113.824 167.695 113.66 167.693 113.49V111.788C167.695 111.619 167.629 111.457 167.509 111.336C167.389 111.215 167.225 111.145 167.053 111.141L154.08 110.996C153.993 110.996 153.908 111.013 153.828 111.045C153.748 111.078 153.676 111.126 153.615 111.186C153.554 111.246 153.506 111.317 153.473 111.396C153.441 111.474 153.424 111.558 153.425 111.643Z" fill="#D6694B"/>
<path d="M154.044 114.137L154.506 123.673H166.308L167.074 114.137H154.044Z" fill="#E19974"/>
<path d="M22.2634 83.9514C22.0068 83.4595 20.6283 83.4588 19.748 84.0631C19.3617 84.3362 19.0666 84.7152 18.9002 85.1524C18.7503 85.5304 18.5104 86.1352 18.8437 86.5488C19.022 86.722 19.2495 86.8387 19.4965 86.8835C19.7435 86.9283 19.9986 86.8993 20.2285 86.8001C20.671 86.4679 21.0697 86.0833 21.4155 85.6551C21.9262 85.0221 22.4701 84.3478 22.2634 83.9514ZM23.3374 83.8955C23.2413 84.1425 23.4319 84.4257 23.7896 84.9568C24.1244 85.4528 24.5452 85.8876 25.0331 86.2416C25.2654 86.4535 25.5609 86.5868 25.8763 86.6219C26.1918 86.6571 26.5104 86.5923 26.7854 86.4371C26.9856 86.3107 27.15 86.137 27.2636 85.932C27.3772 85.727 27.4363 85.4973 27.4354 85.2641C27.4295 84.5404 26.798 84.0927 26.5593 83.9234C25.4031 83.1036 23.5697 83.2985 23.3374 83.8955ZM26.7288 79.2593C26.8131 79.1187 27.0314 79.1901 27.5201 79.1196C27.9334 79.0264 28.3395 78.9051 28.7355 78.7565C29.073 78.6336 29.4239 78.5492 29.7812 78.5051C29.9293 78.5058 30.7665 78.5095 31.0529 79.0637C31.353 79.6443 30.7975 80.3432 30.7703 80.3764C30.2333 81.0334 29.3158 81.0013 29.0181 80.9909C28.6575 80.9731 28.3042 80.8849 27.979 80.7315C27.6538 80.578 27.3632 80.3623 27.1245 80.0972C27.0575 80.0237 26.5824 79.5034 26.7288 79.2593ZM19.0132 76.5501C18.7149 76.403 18.8895 75.4687 18.985 74.9582C19.1156 74.413 19.2952 73.8802 19.5219 73.3661C20.0165 72.0904 20.1294 71.953 20.3133 71.886C20.5657 71.8312 20.8294 71.8589 21.0642 71.9648C21.299 72.0707 21.4919 72.249 21.6134 72.4724C21.9404 73.0919 21.4391 73.875 20.9068 74.7068C20.3956 75.5055 19.4013 76.7413 19.0132 76.5501Z" fill="#5E7C24"/>
<path d="M18.9001 79.008C19.1195 78.6584 18.7158 77.9748 18.3066 77.6115C17.9632 77.3066 17.6117 77.2237 17.0065 77.0809C16.3268 76.9205 15.5786 76.744 15.3673 77.0529C15.1659 77.3475 15.56 77.9262 15.65 78.0584C15.9398 78.4533 16.3432 78.7548 16.8087 78.9242C17.4126 79.1689 18.617 79.459 18.9001 79.008Z" fill="#C4CE6E"/>
<path d="M18.9284 81.7172C18.9365 81.439 18.5258 81.3814 17.6849 80.7117C17.0174 80.1801 16.9983 79.9952 16.6109 79.8738C16.0177 79.6881 15.2434 79.865 15.113 80.2369C15.0811 80.328 15.0856 80.4367 15.5934 81.2423C15.9885 81.869 16.19 82.1848 16.3848 82.3036C16.8183 82.5317 17.3266 82.5819 17.7979 82.4433C18.1527 82.3611 18.9176 82.0941 18.9284 81.7172ZM19.2375 78.5026C18.9605 78.1956 19.2392 77.4535 19.5791 77.0261C19.8643 76.6673 20.1961 76.5259 20.7674 76.2824C21.4091 76.0088 22.1154 75.7077 22.3773 75.9762C22.6271 76.2321 22.3395 76.8691 22.2739 77.0147C22.0572 77.453 21.7123 77.8185 21.2831 78.0646C20.7308 78.4083 19.5949 78.8988 19.2375 78.5026ZM19.4425 81.3888C19.3861 81.1162 19.7807 80.9896 20.4924 80.187C21.0575 79.5498 21.044 79.3645 21.4046 79.179C21.9566 78.8952 22.7502 78.9379 22.9434 79.2821C22.9907 79.3663 23.0051 79.4742 22.6451 80.3542C22.365 81.0387 22.2215 81.384 22.0503 81.5342C21.6634 81.8324 21.1715 81.9683 20.6825 81.9119C20.3188 81.8913 19.5188 81.7583 19.4425 81.3888ZM14.9152 82.8343C14.8756 82.5312 14.3658 82.3639 13.7565 82.164C13.2059 81.9834 12.7688 81.8399 12.2585 81.9964C12.1683 82.0241 11.3656 82.2702 11.2976 82.8622C11.2366 83.3933 11.8153 83.7809 11.8629 83.8118C12.0634 83.9212 12.2843 83.99 12.5125 84.0139C12.7407 84.0379 12.9715 84.0167 13.1912 83.9515C13.9859 83.8018 14.9735 83.2801 14.9152 82.8343Z" fill="#5E7C24"/>
<path d="M17.2045 84.2306C16.7789 83.9333 15.9757 84.4376 15.5935 84.6776C15.2003 84.9238 14.8635 85.2471 14.6043 85.6271C14.31 86.0596 14.0298 86.4713 14.1804 86.8281C14.3969 87.3409 15.3315 87.3333 15.4522 87.3308C15.9776 87.3091 16.474 87.0888 16.837 86.7163C17.1155 86.4198 17.3018 86.0516 17.3741 85.655C17.4255 85.4227 17.6245 84.5241 17.2045 84.2306Z" fill="#C4CE6E"/>
<path d="M13.813 81.3821C13.5735 81.0412 13.6574 80.7996 13.5586 80.209C13.4015 79.2702 13.0673 79.1499 13.1912 78.6729C13.2887 78.2975 13.6191 77.8968 13.9825 77.8909C14.4915 77.8826 14.819 78.6528 14.8869 78.8126C15.1339 79.3935 15.0428 79.9 14.8869 80.7676C14.7851 81.334 14.7074 81.7395 14.463 81.801C14.2267 81.8605 13.9454 81.5706 13.813 81.3821ZM24.6374 81.2983C24.7129 81.0891 25.1132 81.0574 25.5984 81.019C26.2045 80.971 26.6588 80.9351 27.0963 81.2145C27.1636 81.2574 27.8718 81.7228 27.7462 82.2758C27.6481 82.7079 27.0997 82.9346 26.7006 82.9461C26.2675 82.9586 25.973 82.7189 25.4288 82.2758C25 81.9268 24.5444 81.5559 24.6374 81.2983Z" fill="#8B9D36"/>
<path d="M25.344 79.7062C25.2352 79.6819 25.2285 79.5336 25.0896 79.1196C24.7793 78.1948 24.5365 78.1107 24.5809 77.7231C24.6302 77.2943 24.9916 76.8377 25.3157 76.8573C25.669 76.8787 25.8803 77.46 25.9658 77.6953C26.075 77.9705 26.1138 78.2678 26.0788 78.5611C25.9996 79.1615 25.5799 79.7588 25.344 79.7062Z" fill="#5E7C24"/>
<path d="M18.3349 75.6845C18.17 75.9135 17.2337 75.6423 16.6109 75.098C16.4519 74.959 15.7482 74.3438 15.9327 73.7573C15.9677 73.6293 16.0396 73.5138 16.1398 73.4247C16.2401 73.3355 16.3644 73.2765 16.4979 73.2546C16.762 73.2483 16.9336 73.5109 17.3741 74.1483C18.2797 75.4593 18.4072 75.5841 18.3349 75.6845Z" fill="#8B9D36"/>
<path d="M23.4787 81.8568C23.0044 81.9831 22.3839 81.0026 22.2352 80.7675C21.8484 80.1665 21.6517 79.4668 21.6699 78.7566C21.6902 78.3125 21.7273 77.5028 22.2069 77.3043C22.6664 77.1143 23.288 77.5863 23.5917 77.9466C24.1909 78.6575 24.0956 79.5772 24.0157 80.3486C23.9534 80.9495 23.8702 81.7524 23.4787 81.8568Z" fill="#C4CE6E"/>
<path d="M23.5474 92.5286H18.8873L17.3881 84.7416C17.3792 84.6969 17.3806 84.6509 17.392 84.6069C17.4034 84.5628 17.4245 84.5217 17.454 84.4865C17.4834 84.4513 17.5205 84.423 17.5624 84.4034C17.6043 84.3838 17.6501 84.3735 17.6966 84.3733H24.7382C24.7846 84.3735 24.8304 84.3838 24.8724 84.4034C24.9143 84.423 24.9513 84.4514 24.9807 84.4865C25.0102 84.5217 25.0314 84.5628 25.0428 84.6069C25.0542 84.6509 25.0555 84.697 25.0467 84.7416L23.5474 92.5286Z" fill="#E19974"/>
<path d="M24.9383 85.3042L25.0467 84.7416C25.0555 84.697 25.0542 84.6509 25.0428 84.6069C25.0314 84.5628 25.0102 84.5217 24.9807 84.4865C24.9513 84.4514 24.9143 84.423 24.8724 84.4034C24.8304 84.3838 24.7846 84.3735 24.7382 84.3733H17.6966C17.6501 84.3735 17.6043 84.3838 17.5624 84.4034C17.5205 84.423 17.4834 84.4513 17.454 84.4865C17.4245 84.5217 17.4034 84.5628 17.392 84.6069C17.3806 84.6509 17.3792 84.6969 17.3881 84.7416L17.4964 85.3042H24.9383Z" fill="#D6694B"/>
<path d="M19.2598 90.3232L18.2753 89.3504L19.2598 88.3775L20.2442 89.3504L19.2598 90.3232Z" fill="#D6694B"/>
<path d="M21.2288 90.3232L20.2442 89.3504L21.2288 88.3775L22.2133 89.3504L21.2288 90.3232Z" fill="#D6694B"/>
<path d="M23.1748 90.3232L22.1903 89.3504L23.1748 88.3775L24.1593 89.3504L23.1748 90.3232Z" fill="#D6694B"/>
<path d="M176.745 122.982H0.250977V123.673H176.745V122.982Z" fill="#935B50"/>
<path d="M36.1027 52.6155H49.0433V47.0191H36.1027V52.6155Z" fill="#BBCEAF"/>
<path d="M28.5927 45.2728H41.5333V39.6763H28.5927V45.2728Z" fill="#BBCEAF"/>
<path d="M20.7864 52.6155H33.727V47.0191H20.7864V52.6155Z" fill="#BBCEAF"/>
<path d="M31.2692 59.9575H44.2097V54.3611H31.2692V59.9575Z" fill="#BBCEAF"/>
<path d="M16.5283 59.9575H29.4689V54.3611H16.5283V59.9575Z" fill="#BBCEAF"/>
<path d="M88.187 114.868C86.0053 117.419 83.0028 119.168 79.672 119.829C79.3556 119.886 79.0536 120.003 78.7826 120.173L78.7584 120.189C78.5823 120.301 78.4479 120.466 78.3752 120.659C78.3025 120.852 78.2954 121.063 78.3549 121.26C78.4145 121.458 78.5375 121.631 78.7056 121.754C78.8738 121.878 79.0782 121.945 79.2883 121.945H91.3425C92.0071 121.945 92.6445 121.687 93.1145 121.227C93.5844 120.766 93.8484 120.142 93.8484 119.492L93.7784 114.868H88.187Z" fill="#F9977A"/>
<path d="M120.973 38.4789C120.973 38.4789 121.796 36.6957 120.845 34.2904C119.829 31.7192 120.119 27.9008 121.076 25.2454C121.186 24.9493 121.236 24.6352 121.224 24.3204L121.223 24.292C121.214 24.0865 121.137 23.8894 121.004 23.7301C120.871 23.5707 120.689 23.4577 120.485 23.4077C120.281 23.3577 120.066 23.3734 119.872 23.4526C119.678 23.5318 119.516 23.6701 119.408 23.8471L113.287 34.0136C112.95 34.5741 112.853 35.243 113.019 35.873C113.186 36.503 113.601 37.0426 114.173 37.373L115.889 38.4789L120.973 38.4789Z" fill="#F7987A"/>
<path d="M70.4598 29.3347C70.4598 29.3347 83.7392 29.5628 93.99 32.6316L112.939 34.3734L112.543 38.4789L93.4817 36.9445L79.7999 36.7994L77.0466 43.1651C77.0466 43.1651 68.7866 43.1236 70.4598 29.3347ZM64.4333 33.8757C64.4333 33.8757 51.6342 33.5328 40.9153 33.6258L22.2406 30.0284L21.43 34.0752L40.1519 37.9025L62.0949 40.8279C62.0949 40.8279 62.0386 47.5623 64.4333 33.8757Z" fill="#F7987A"/>
<path d="M80.6048 63.1262L85.7725 90.6073L87.7801 114.234C87.7948 114.407 87.8753 114.568 88.0056 114.685C88.1359 114.802 88.3065 114.868 88.4837 114.868H93.4554C93.6373 114.868 93.8122 114.799 93.9436 114.676C94.075 114.553 94.1528 114.384 94.1607 114.207L96.3198 65.725C96.3198 65.725 108.638 69.0701 120.463 69.5078C121.527 69.5498 122.586 69.3504 123.557 68.9254C124.529 68.5003 125.387 67.861 126.065 67.0574C126.742 66.2538 127.221 65.3077 127.463 64.2931C127.705 63.2784 127.705 62.2227 127.461 61.2083C126.349 56.5509 125.121 49.4639 121.833 38.9697C121.789 38.8279 121.699 38.7038 121.577 38.6155C121.455 38.5272 121.308 38.4793 121.157 38.4789H116.004C115.902 38.4789 115.802 38.5003 115.709 38.5418C115.617 38.5833 115.535 38.6437 115.469 38.7191C115.402 38.7945 115.353 38.883 115.325 38.9785C115.297 39.0741 115.29 39.1745 115.305 39.2728L118.431 59.6289L100.132 54.6524C100.132 54.6524 93.7783 49.1783 88.5682 51.1689C88.5682 51.1689 86.1961 58.7718 80.6048 63.1262Z" fill="#FFBA55"/>
<path d="M84.5018 63.9003C84.936 64.1506 85.3963 64.3546 85.8749 64.5087C86.3476 64.6734 86.8292 64.8123 87.3177 64.9246C88.2939 65.1526 89.284 65.3195 90.2819 65.4243C91.2785 65.5495 92.2837 65.5974 93.2896 65.6565L94.8022 65.6987C95.3072 65.7079 95.8124 65.7053 96.3198 65.725C95.8168 65.7836 95.3116 65.8199 94.8061 65.868L93.2851 65.9223C92.7774 65.9231 92.2695 65.9134 91.7614 65.893C91.2543 65.8556 90.7459 65.8337 90.2408 65.7673C89.2265 65.661 88.2243 65.4644 87.2465 65.1799C86.2582 64.9244 85.3273 64.4904 84.5018 63.9003ZM118.431 59.6289C118.774 59.6139 119.116 59.6639 119.44 59.7761C119.768 59.8756 120.073 60.0369 120.337 60.2509C119.994 60.2666 119.652 60.2166 119.328 60.1037C119.001 60.0034 118.696 59.8422 118.431 59.6289ZM95.1762 89.612C95.0284 89.865 94.8251 90.0827 94.581 90.2494C94.3442 90.426 94.0699 90.5484 93.7783 90.6073C93.9255 90.3539 94.1289 90.1361 94.3735 89.97C94.6107 89.794 94.8848 89.6717 95.1762 89.612ZM121.227 66.9691C121.196 66.4463 121.322 65.9261 121.587 65.4715C121.852 65.0096 122.222 64.6129 122.667 64.3116C123.109 64.0181 123.6 63.8001 124.117 63.6669C124.373 63.6048 124.634 63.5636 124.891 63.5211C125.155 63.5093 125.414 63.4862 125.674 63.4856C125.424 63.564 125.173 63.62 124.926 63.6871L124.201 63.9238C123.966 64.0124 123.736 64.1125 123.511 64.2239L123.179 64.3928L122.869 64.5948C122.46 64.8695 122.105 65.2139 121.822 65.6116C121.531 66.0199 121.329 66.4818 121.227 66.9691ZM87.4245 88.4923C87.7906 88.6932 88.0991 88.9811 88.3217 89.3294C88.5581 89.6884 88.6791 90.1085 88.669 90.5354C88.65 90.9585 88.5159 91.369 88.2807 91.7244C88.1647 91.8945 88.0361 92.0558 87.8958 92.2072C87.7418 92.344 87.5866 92.4772 87.4246 92.5979C87.531 92.4231 87.6478 92.2634 87.7595 92.1025C87.8499 91.9281 87.9627 91.7688 88.0392 91.5947C88.2047 91.2611 88.299 90.898 88.3163 90.5275C88.3263 90.1577 88.2455 89.791 88.0808 89.458C87.9077 89.1085 87.6869 88.7837 87.4245 88.4923ZM100.132 54.6524C100.367 54.7642 100.569 54.9323 100.719 55.1409C100.879 55.343 100.983 55.5817 101.022 55.8343C100.787 55.7231 100.585 55.5549 100.435 55.3458C100.276 55.1433 100.172 54.9048 100.132 54.6524Z" fill="#E6952A"/>
<path d="M65.375 45.0727C62.9205 44.243 62.3495 37.769 61.3156 34.4351C61.1336 33.8455 60.749 33.3356 60.227 32.9918C59.705 32.648 59.0776 32.4914 58.4512 32.5486C58.4512 32.5486 55.1795 34.0416 55.2271 32.2335C55.2336 32.0483 55.1957 31.8642 55.1165 31.696C55.0372 31.5278 54.9187 31.3801 54.7706 31.2648C54.7318 31.2342 54.7004 31.1956 54.6786 31.1518C54.6568 31.1079 54.6451 31.06 54.6443 31.0112C54.6435 30.9625 54.6537 30.9142 54.6741 30.8697C54.6945 30.8252 54.7247 30.7857 54.7624 30.7539C55.1467 30.4598 55.4637 30.0901 55.6931 29.6687C55.7107 29.6291 55.7169 29.5855 55.7111 29.5427C55.7052 29.4999 55.6875 29.4595 55.6599 29.4258C55.6323 29.3922 55.5957 29.3666 55.5543 29.3518C55.5129 29.337 55.4681 29.3336 55.4248 29.3419L54.0872 29.6041C54.058 29.6098 54.0279 29.6089 53.9991 29.6014C53.9703 29.5939 53.9437 29.58 53.9213 29.5609C53.8988 29.5417 53.8812 29.5177 53.8697 29.4908C53.8582 29.4639 53.8532 29.4348 53.855 29.4057L53.866 29.2313C53.8677 29.2044 53.8639 29.1774 53.8548 29.1519C53.8457 29.1265 53.8316 29.1031 53.8132 29.083C53.7948 29.063 53.7725 29.0467 53.7476 29.0352C53.7227 29.0237 53.6957 29.0171 53.6682 29.016L53.1994 28.9956C53.1234 28.9923 53.0492 28.9719 52.9826 28.9358C52.916 28.8997 52.8588 28.8491 52.8155 28.7877C52.7723 28.7264 52.7441 28.6562 52.7332 28.5824C52.7223 28.5087 52.729 28.4335 52.7527 28.3627L53.3448 26.5979C53.4479 26.2894 53.4326 25.9547 53.3017 25.6565C52.9184 24.7794 52.1712 22.729 52.4764 20.6392C52.4764 20.6392 54.1433 23.4324 59.2598 26.0426C59.2598 26.0426 59.4227 22.7228 61.8906 24.4015C61.8906 24.4015 62.8512 25.0218 62.6531 27.4395L63.6472 28.1364C64.4062 28.6452 64.9533 29.404 65.1887 30.2746C65.4943 31.5252 68.0389 29.5586 68.5761 30.0283C68.5761 30.0283 68.75 46.2136 65.375 45.0727Z" fill="#F9977A"/>
<path d="M56.1244 25.4784C56.1688 25.4811 56.2127 25.4686 56.2487 25.443C56.2846 25.4174 56.3103 25.3803 56.3214 25.3382C56.3324 25.296 56.3281 25.2514 56.3091 25.212C56.2902 25.1727 56.2578 25.141 56.2175 25.1225C55.2566 24.7097 54.216 24.5046 53.1668 24.5213C53.1417 24.5222 53.1171 24.5279 53.0942 24.5382C53.0714 24.5484 53.0509 24.563 53.0339 24.581C53.0168 24.599 53.0035 24.6202 52.9948 24.6432C52.9861 24.6663 52.9822 24.6908 52.9832 24.7153C52.9858 24.7646 53.008 24.811 53.0449 24.8446C53.0819 24.8781 53.1307 24.8963 53.1812 24.8953C54.169 24.8838 55.1482 25.0766 56.0547 25.4611C56.0766 25.4711 56.1002 25.477 56.1244 25.4784ZM55.1795 25.9765C54.9657 25.8149 54.7085 25.7179 54.4393 25.6971C54.1677 25.6683 53.8946 25.7351 53.6687 25.8854C53.8044 25.88 53.9277 25.8642 54.0531 25.867C54.1768 25.8636 54.3004 25.8691 54.4232 25.8833C54.6718 25.8943 54.9134 25.947 55.1795 25.9765Z" fill="#350500"/>
<path d="M54.4844 26.2054C54.4987 25.9785 54.4027 25.7881 54.27 25.7801C54.1373 25.7721 54.0181 25.9495 54.0039 26.1764C53.9896 26.4033 54.0856 26.5937 54.2183 26.6017C54.351 26.6097 54.4702 26.4323 54.4844 26.2054Z" fill="#050505"/>
<path d="M61.863 25.2059C61.557 24.9632 61.1713 24.8379 60.7779 24.8533C60.575 24.8681 60.3805 24.9385 60.2168 25.0567C60.06 25.1742 59.9424 25.3345 59.8787 25.5174C59.9992 25.3834 60.1408 25.2691 60.2983 25.179C60.4511 25.0995 60.6192 25.0521 60.7918 25.0398C61.1559 25.0346 61.5183 25.0908 61.863 25.2059Z" fill="#DD765E"/>
<path d="M61.7589 26.8625C61.4854 26.6094 61.2527 26.3173 61.0687 25.9959C60.98 25.8385 60.9121 25.6707 60.8665 25.4965C60.8205 25.3163 60.7903 25.1326 60.7764 24.9474C60.7151 25.133 60.6958 25.3295 60.7199 25.5231C60.7419 25.7199 60.8032 25.9105 60.9003 26.0842C60.9958 26.2568 61.1192 26.4131 61.2657 26.5471C61.4085 26.6814 61.5758 26.7884 61.7589 26.8625Z" fill="#DD765E"/>
<path d="M61.02 33.7965C61.02 33.7965 66.4569 52.8691 67.8548 29.6457C67.8548 29.6457 69.5067 28.7126 70.4598 29.3347C70.4598 29.3347 70.529 32.8991 71.9161 35.7077C72.2613 36.3896 72.7696 36.9798 73.3978 37.428C74.026 37.8762 74.7555 38.1692 75.5243 38.282C76.293 38.3948 77.0782 38.3241 77.8131 38.076C78.5479 37.8278 79.2106 37.4095 79.7448 36.8567C79.7631 36.8377 79.7815 36.8187 79.7999 36.7994C79.7999 36.7994 83.5699 43.1651 88.5682 51.1689C88.5682 51.1689 86.3232 58.834 80.6048 63.1262C80.6048 63.1262 70.2361 56.8503 67.5371 51.1066C67.5371 51.1066 62.3684 51.3176 62.454 45.4323C62.454 45.4323 61.3786 41.3009 60.0443 40.5545C60.0443 40.5545 59.1562 32.0133 61.02 33.7965Z" fill="#F73C4F"/>
<path d="M52.4764 20.6392C52.4764 20.6392 53.2277 23.3054 59.2598 26.0426C59.2598 26.0426 59.5532 24.0777 60.8564 24.0553C61.0749 24.0562 61.2895 24.1119 61.4798 24.2171C61.6701 24.3223 61.8296 24.4735 61.9432 24.6562C62.4977 25.4773 62.7483 26.4596 62.6531 27.4395C62.6714 28.4755 62.8569 29.5022 63.2026 30.4816C63.6453 31.5248 64.0612 33.3952 64.9235 32.925C70.2361 30.0283 68.7381 25.5548 67.4017 21.5392C64.7735 13.6419 53.6903 15.2232 52.4764 20.6392Z" fill="#84382A"/>
<path d="M67.0058 21.9511C69.5909 21.9511 71.6864 19.8995 71.6864 17.3687C71.6864 14.8378 69.5909 12.7862 67.0058 12.7862C64.4208 12.7862 62.3252 14.8378 62.3252 17.3687C62.3252 19.8995 64.4208 21.9511 67.0058 21.9511Z" fill="#84382A"/>
<path d="M61.9273 28.9023C62.5368 28.9023 63.0308 28.4186 63.0308 27.822C63.0308 27.2254 62.5368 26.7417 61.9273 26.7417C61.3179 26.7417 60.8239 27.2254 60.8239 27.822C60.8239 28.4186 61.3179 28.9023 61.9273 28.9023Z" fill="#F73C4F"/>
<path d="M61.2168 34.4454C61.2439 34.5327 61.2912 34.6703 61.3177 34.7618L61.3961 34.7049C62.0219 32.9215 61.2336 30.6721 61.2336 30.6721C60.4413 31.4708 59.4958 32.1085 58.4512 32.5486C59.0665 32.4954 59.6813 32.6565 60.1872 33.0034C60.6931 33.3504 61.0577 33.861 61.2168 34.4454Z" fill="#DD765E"/>
<path d="M67.5371 51.1066C67.7778 50.9917 68.0394 50.9246 68.3068 50.9093C68.4331 50.8997 68.5598 50.8972 68.6864 50.9016C68.8152 50.9032 68.9353 50.9186 69.0832 50.92C68.9976 51.0373 68.8752 51.1241 68.7347 51.1671C68.6062 51.2132 68.472 51.2422 68.3356 51.2535C68.0606 51.2804 67.7834 51.2294 67.5371 51.1066ZM75.6911 55.8343C76.1182 55.9495 76.5444 56.059 76.9762 56.1443C77.405 56.2395 77.8363 56.3213 78.2698 56.3835C79.131 56.5198 80.003 56.58 80.8752 56.5633C81.7406 56.5545 82.5983 56.4028 83.4122 56.1147C84.2301 55.8111 84.9551 55.3077 85.5183 54.6524C85.2826 55.0248 84.9937 55.3624 84.6604 55.6547C84.3124 55.9375 83.9281 56.1746 83.5173 56.3598C82.6862 56.7131 81.7911 56.8997 80.8851 56.9085C79.9892 56.9263 79.0944 56.8373 78.2205 56.6437C77.35 56.4643 76.5019 56.1929 75.6911 55.8343Z" fill="#B02336"/>
<path d="M122.06 34.3664C122.049 34.4978 122.029 34.6283 122 34.7569C121.873 35.3434 121.637 35.9021 121.304 36.4053L118.456 38.161C117.874 38.5194 117.194 38.6944 116.507 38.6621L112.543 38.4789L112.938 34.3733L115.851 32.2203C116.123 32.0173 116.444 31.8853 116.783 31.8367L120.238 31.3321C120.553 31.4967 120.842 31.7051 121.096 31.9507C121.189 32.0359 121.277 32.1271 121.357 32.2238C121.578 32.4805 121.753 32.7713 121.876 33.0843C121.923 33.1915 121.959 33.3025 121.986 33.416C122.062 33.727 122.087 34.0478 122.06 34.3664Z" fill="#F9977A"/>
<path d="M112.938 34.3733L114.53 33.1209L115.328 32.4976C115.591 32.2754 115.875 32.078 116.176 31.9082C116.338 31.8312 116.509 31.7747 116.685 31.7399L117.192 31.656L118.199 31.4925C118.87 31.3801 119.543 31.2838 120.215 31.1805L120.265 31.1729L120.307 31.1944C120.773 31.4387 121.187 31.7697 121.524 32.1689C121.692 32.3705 121.834 32.591 121.948 32.8257C122.005 32.9434 122.052 33.065 122.091 33.1896C122.137 33.3126 122.172 33.4397 122.195 33.569C122.242 33.8257 122.257 34.0873 122.237 34.3475C122.209 34.604 122.16 34.858 122.092 35.1073C121.943 35.5954 121.725 36.0606 121.444 36.4894L121.423 36.5217L119.4 37.7534C119.066 37.9572 118.74 38.1528 118.392 38.3521C118.036 38.5434 117.648 38.6717 117.245 38.7313C116.849 38.7789 116.449 38.7804 116.052 38.7357L114.882 38.6558L112.543 38.4789L114.889 38.5184L116.061 38.5468C116.444 38.5781 116.828 38.5649 117.207 38.5075C117.578 38.4404 117.934 38.3099 118.259 38.1219L119.239 37.5036L121.217 36.2699L121.165 36.3213C121.425 35.9159 121.626 35.477 121.761 35.0172C121.895 34.5661 121.926 34.0919 121.854 33.6276C121.835 33.5135 121.806 33.4013 121.765 33.2928C121.733 33.1806 121.691 33.071 121.642 32.965C121.541 32.7528 121.415 32.5531 121.267 32.3703C120.963 32.0046 120.59 31.6991 120.17 31.47L120.261 31.4838C119.588 31.5771 118.915 31.6773 118.24 31.7614L117.228 31.8926C116.898 31.9111 116.574 31.9794 116.266 32.0951C115.972 32.2501 115.694 32.4312 115.435 32.6362L114.605 33.2173L112.938 34.3733Z" fill="#DD765E"/>
<path d="M121.357 32.2238L118.071 33.4576C118.05 33.4643 118.029 33.4678 118.007 33.4679C117.966 33.4681 117.926 33.4541 117.894 33.4282C117.862 33.4023 117.84 33.3662 117.832 33.3263C117.825 33.2864 117.832 33.2451 117.852 33.2097C117.873 33.1743 117.905 33.1471 117.944 33.1327L121.096 31.9507C121.189 32.0359 121.277 32.1271 121.357 32.2238ZM121.986 33.416L119.102 34.4978C119.081 34.5045 119.06 34.508 119.038 34.5081C118.997 34.5083 118.956 34.4943 118.924 34.4684C118.892 34.4425 118.871 34.4064 118.863 34.3665C118.856 34.3266 118.863 34.2853 118.883 34.2499C118.903 34.2145 118.936 34.1872 118.975 34.1729L121.876 33.0843C121.923 33.1915 121.959 33.3025 121.986 33.416ZM122.06 34.3664C122.049 34.4978 122.029 34.6283 122 34.7569L119.366 35.7453C119.347 35.7548 119.325 35.7596 119.303 35.7592C119.267 35.7584 119.233 35.7475 119.203 35.7279C119.174 35.7083 119.151 35.6807 119.137 35.6486C119.129 35.6272 119.125 35.6045 119.125 35.5817C119.126 35.5588 119.131 35.5363 119.141 35.5155C119.15 35.4946 119.164 35.4758 119.181 35.4601C119.198 35.4444 119.217 35.4321 119.239 35.424L122.06 34.3664Z" fill="#DD765E"/>
<path d="M22.3404 30.1136C21.4061 29.2411 20.4195 28.4239 19.3857 27.6665C19.1403 27.5021 18.899 27.3337 18.6622 27.1575C18.0384 26.6934 16.9031 25.9109 16.4514 26.0011C15.8138 26.1285 18.4002 28.5621 18.4002 28.5621L12.2404 27.3592C12.0903 27.328 11.9354 27.3266 11.7847 27.3549C11.5274 27.4065 11.2817 27.5464 11.9781 27.9243C12.5327 28.2252 15.5872 29.2247 15.5872 29.2247L11.5595 28.6935C11.5595 28.6935 9.71868 28.7272 11.1981 29.3653C12.4361 29.8238 13.7214 30.1493 15.0312 30.3361L11.6767 30.3387C11.6767 30.3387 9.98507 30.3034 11.6212 30.9001C12.5964 31.2582 13.6324 31.4309 14.6736 31.4089C14.6736 31.4089 14.4087 31.6921 12.086 31.5183C12.086 31.5183 10.0138 31.5513 12.878 32.2558C13.9776 32.4851 15.0618 32.7804 16.1244 33.1399C16.8209 33.3842 17.7005 33.872 18.4404 33.8744L21.43 34.0752L22.3404 30.1136Z" fill="#F9977A"/>
<path d="M18.1525 28.9683C18.0341 29.137 17.9561 29.3298 17.9244 29.5321C17.8876 29.734 17.8812 29.9401 17.9056 30.1437C17.9312 30.346 17.9836 30.5441 18.0615 30.7331C18.0991 30.8274 18.1484 30.9169 18.192 31.0074C18.248 31.093 18.3006 31.1791 18.3636 31.2589C18.2639 30.8831 18.1858 30.5022 18.1294 30.1179C18.0785 29.7357 18.0863 29.3482 18.1525 28.9683ZM17.3295 29.1858C16.9884 29.4923 16.68 29.8119 16.3498 30.1071C16.1883 30.258 16.0202 30.4001 15.8456 30.5334C15.6699 30.6704 15.4773 30.7851 15.2724 30.875C15.5085 30.8638 15.7381 30.7954 15.9404 30.6757C16.1449 30.564 16.3341 30.4272 16.5033 30.2687C16.6729 30.1141 16.8279 29.9447 16.9661 29.7626C17.1077 29.5835 17.2296 29.3901 17.3295 29.1858Z" fill="#DD765E"/>
<path d="M144.312 121.945H47.3302C46.8428 121.945 46.4477 122.332 46.4477 122.809C46.4477 123.286 46.8428 123.673 47.3302 123.673H144.312C144.799 123.673 145.194 123.286 145.194 122.809C145.194 122.332 144.799 121.945 144.312 121.945Z" fill="#376F92"/>
</svg>
