<svg width="122" height="80" viewBox="0 0 122 80" fill="none" xmlns="http://www.w3.org/2000/svg">
<path d="M121.138 59.5487C118.654 60.656 110.516 65.8482 109.137 66.878C110.609 65.2372 115.804 58.4414 117.504 55.5011C118.378 54.0123 117.276 52.5607 114.792 54.279C111.711 56.416 106.792 60.3893 105.186 61.5338C101.186 64.3594 101.645 63.3948 103.255 60.5785C103.576 60.045 103.483 60.197 103.759 59.7783C103.991 59.4681 104.954 58.9377 105.186 58.671C105.458 58.2863 106.011 57.1201 105.69 56.6828C105.548 56.5508 105.352 56.4666 105.14 56.446C104.928 56.4254 104.715 56.4699 104.54 56.5711C104.125 56.9471 103.755 57.3565 103.438 57.7932C103.028 58.3617 102.654 58.9477 102.317 59.5487C99.2772 59.6325 93.9213 61.3074 91.0305 62.2596C93.1445 57.5637 96.547 50.9571 100.457 47.0614C100.868 47.4026 101.1 47.4026 101.328 47.3716C102.019 47.3716 102.478 45.6905 102.661 44.8127C102.799 43.7054 101.791 43.7054 101.1 44.3568C96.6179 48.9348 93.32 54.1859 90.6869 59.6604C88.6028 60.9414 82.7614 64.3625 80.64 64.3625C78.16 64.3625 82.7091 58.7795 83.2544 58.1375L83.6279 57.6815C83.8189 57.4766 83.9888 57.2587 84.1359 57.0302C84.3189 56.6487 84.3637 56.0997 83.6765 56.0997C82.8473 56.0221 82.6195 56.9402 82.2945 57.2814C81.7156 57.9576 81.0471 58.8012 80.4271 59.6666C78.1861 61.1678 68.5837 64.989 66.156 63.1249C65.1438 62.3992 65.3268 60.7181 66.339 59.344C67.3955 57.9364 69.028 56.8924 70.9367 56.4036C71.9003 56.2144 72.961 56.0935 73.6968 56.5587C74.201 56.8689 75.1646 56.3664 75.3028 55.7554C75.3962 55.4452 74.8919 54.9148 73.6968 54.8249C70.735 54.6078 66.2531 56.5959 64.6209 59.5332C64.5455 59.5604 64.474 59.5948 64.408 59.6356C64.23 59.7401 64.0604 59.854 63.9001 59.9768C61.9243 61.6206 58.9364 62.6132 56.7776 63.1467C54.8915 63.6801 52.6692 63.6801 52.6692 61.7726C52.6692 60.8173 54.0474 59.406 54.0474 58.2212C53.6365 57.5357 52.7626 57.9545 52.6692 58.032C50.7059 59.8981 48.4701 61.5537 46.0136 62.9606C45.05 63.4971 44.0378 63.9934 43.8548 63.9934C43.7614 63.9934 43.7614 63.9159 43.7614 63.8383C43.7892 63.3046 43.9615 62.783 44.2656 62.3123C45.8754 59.2106 49.1845 55.4886 53.6029 55.4886C54.299 55.5218 54.9691 55.7198 55.5339 56.0594C55.9933 56.2889 56.1763 56.7076 56.4527 57.0922C56.5346 57.2038 56.657 57.291 56.8022 57.3415C56.9474 57.3919 57.1081 57.4029 57.2613 57.373C57.4146 57.3431 57.5525 57.2737 57.6554 57.1749C57.7584 57.076 57.8211 56.9526 57.8346 56.8224C57.8346 55.3336 54.6599 54.3038 53.1435 54.3038C50.2415 54.3038 46.3497 56.9712 44.1013 59.7876C42.1143 61.4625 36.9676 63.7732 33.834 63.9624C30.6071 64.1857 31.0515 61.7912 31.9292 60.8607L32.1795 60.7925C33.9087 60.8142 37.4345 60.0605 39.1227 57.7374C41.0536 54.9459 38.1553 52.8119 33.3746 57.2411C32.4315 58.1374 31.6064 59.1148 30.9133 60.1567C28.3658 60.8382 25.7014 61.1703 23.0252 61.1399C17.9793 61.0965 14.4685 58.5686 14.0614 54.6977C13.7732 51.8301 14.3349 48.9474 15.6973 46.3015C16.1567 45.4144 16.9111 44.1676 18.2109 43.5689C21.337 42.1267 24 44.1366 26.5771 46.0813C27.5171 46.8397 28.5399 47.524 29.6323 48.1253C30.1962 48.4075 30.7527 48.7456 31.2868 49.0558C32.0208 49.51 32.7893 49.9244 33.5875 50.2965C35.582 51.1711 37.6959 51.2518 39.3804 50.526C41.0648 49.8002 42.0284 48.4075 41.8342 46.987V46.8784C41.8044 46.7619 41.8044 46.6414 41.8342 46.5248C41.8753 46.4504 42.0695 46.3728 42.2413 46.3015L42.4542 46.2116C42.9883 45.9599 43.42 45.5818 43.6941 45.1254C43.9681 44.6691 44.0722 44.1553 43.993 43.6496C44.2769 43.5664 44.5355 43.4328 44.7509 43.2582C44.9664 43.0836 45.1334 42.8721 45.2405 42.6384C45.319 42.4013 45.343 42.1541 45.3114 41.9096C45.2106 40.3215 45.8903 40.0486 47.2461 39.5182C48.0225 39.2334 48.759 38.8787 49.4422 38.4605C49.5726 38.399 49.6855 38.315 49.7733 38.2141C49.8611 38.1132 49.9218 37.9978 49.9512 37.8757C49.9806 37.7536 49.978 37.6277 49.9437 37.5065C49.9094 37.3853 49.8441 37.2717 49.7522 37.1733C47.5897 34.2391 47.1378 30.8614 48.5309 27.9086C49.924 24.9559 50.0398 21.7394 48.9754 17.5212C48.0603 13.917 46.4991 10.7936 44.3291 8.24098C40.4411 3.66602 33.7369 0.617083 26.4016 0.0742917C22.9922 -0.165991 19.5597 0.178057 16.3171 1.08509C13.0745 1.99213 10.0909 3.4428 7.55144 5.34712C5.03465 7.27629 3.05678 9.63952 1.75667 12.2709C0.456555 14.9024 -0.134296 17.7382 0.0255881 20.5794C0.15631 22.4993 0.660524 23.8982 1.61293 24.9807C2.75955 26.2865 4.67556 27.1922 7.01361 27.5333C7.92051 27.6686 8.8413 27.7288 9.76251 27.7132L9.85215 27.8156C9.98822 27.9746 10.1354 28.1268 10.2929 28.2715C10.4644 29.3117 11.0619 30.2711 11.9848 30.9886C13.3294 32.0121 15.1371 32.2913 16.4144 32.3471C18.1437 32.4216 19.5517 32.0866 20.4854 31.3732C20.8476 31.0959 21.1418 30.7631 21.3519 30.3931C22.3127 30.7597 23.3613 30.94 24.4183 30.9204C25.0226 30.9031 25.6151 30.7774 26.1554 30.552C26.6957 30.3266 27.1708 30.0068 27.5482 29.6146H27.6415C30.2103 29.8701 32.8153 29.6584 35.2757 28.9942C35.9054 29.3304 36.4425 29.7733 36.8518 30.2938C37.1126 30.5861 37.3919 30.8667 37.6885 31.1344C38.5587 31.8712 39.6645 32.3862 40.8754 32.6186C42.0863 32.8511 43.352 32.7913 44.5234 32.4464L44.1499 31.5748C43.1845 31.8592 42.1413 31.9084 41.1434 31.7166C40.1455 31.5248 39.2344 31.1 38.5176 30.4923C38.2562 30.2597 38.0134 29.9992 37.7706 29.7231C37.1693 29.0749 36.5418 28.4018 35.5633 28.0637L35.3691 27.9986L35.1674 28.0544C32.8922 28.6876 30.4824 28.9179 28.0935 28.7306C28.1716 28.4812 28.2155 28.2252 28.2242 27.9676C30.5008 27.605 32.7048 26.9785 34.7715 26.1066C35.5062 26.0972 36.2221 25.912 36.8332 25.5731C37.4762 25.2028 37.983 24.6918 38.2973 24.0967C41.9575 21.3641 43.6344 17.3009 42.5401 13.8612C42.8667 13.2022 42.9918 12.4863 42.9045 11.7774C42.8172 11.0685 42.5201 10.3885 42.0396 9.79801C41.4943 9.22867 40.7972 8.77233 40.0032 8.46498C39.2092 8.15763 38.3401 8.00769 37.4644 8.02696H37.4382C36.4456 8.03811 35.4622 8.18698 34.5287 8.4674C33.9792 8.35806 33.4214 8.27931 32.8592 8.23167C33.0509 6.80933 32.7229 5.37199 31.918 4.10646C31.7363 3.79463 31.4674 3.52343 31.1337 3.31553C30.7254 3.1118 30.2579 3.00455 29.7817 3.00537C28.3257 2.95593 26.8935 3.3239 25.7255 4.04753C25.2078 4.35963 24.7814 4.7646 24.4781 5.23236C24.4781 5.25097 24.4519 5.27268 24.437 5.29439C23.8956 4.89317 23.2703 4.57779 22.5919 4.36389C21.7365 4.13605 20.8309 4.06826 19.9402 4.16539C19.7235 4.11266 19.5032 4.06924 19.2791 4.03202L19.04 4.0041L18.8384 4.13747C18.7076 4.22122 18.5769 4.31117 18.4649 4.40422C15.9102 4.9346 13.475 6.2435 11.0697 8.37125C10.5804 8.50606 10.136 8.73426 9.77213 9.03752C9.40825 9.34079 9.13504 9.71067 8.97444 10.1175C8.91109 10.2736 8.86117 10.4332 8.82505 10.5951C5.96784 13.7712 4.82122 16.5845 5.32543 19.1899C5.40923 19.6248 5.54049 20.0525 5.7176 20.4677C5.21825 20.7774 4.80033 21.1685 4.48948 21.617C4.17864 22.0656 3.98141 22.5621 3.9099 23.0762C3.7605 24.4813 4.84363 25.8491 6.37494 26.1779C7.03333 26.306 7.71846 26.306 8.37686 26.1779C8.50758 26.1562 8.6383 26.1345 8.76902 26.1066C8.8634 26.3333 8.97441 26.5549 9.10143 26.7703C8.46659 26.7562 7.83377 26.7043 7.20783 26.6152C5.15736 26.3051 3.47291 25.539 2.51678 24.4441C1.69883 23.5136 1.26184 22.2729 1.14606 20.5391C0.98888 17.8308 1.54888 15.1268 2.78659 12.6177C4.0243 10.1086 5.90961 7.85545 8.30963 6.01708C10.7356 4.20231 13.5846 2.82073 16.6801 1.958C19.7755 1.09526 23.0513 0.769766 26.3044 1.00169C33.2103 1.51036 39.7688 4.48796 43.4141 8.77756C45.4944 11.2248 46.9959 14.2334 47.896 17.7135C48.9193 21.7456 48.7924 24.7791 47.4926 27.5488C45.9762 30.7746 46.4543 34.4501 48.7998 37.6386L48.8185 37.6634L48.7625 37.7006C48.142 38.079 47.4732 38.3994 46.768 38.6559C45.3114 39.2297 44.0565 39.726 44.1947 41.9375C44.2218 42.0709 44.2218 42.2072 44.1947 42.3407C44.0976 42.595 43.6456 42.7625 43.1713 42.9021L42.6522 43.0572L42.8314 43.4883C42.9598 43.8394 42.9419 44.2162 42.7806 44.5578C42.6193 44.8994 42.3241 45.1859 41.9425 45.371L41.767 45.4455C41.3787 45.5671 41.0538 45.7975 40.8482 46.0968C40.71 46.3757 40.6762 46.6826 40.7511 46.9777V47.0707C40.893 48.1067 40.1647 49.1271 38.8836 49.6761C37.5279 50.2623 35.7986 50.1786 34.1328 49.4497C33.3781 49.0999 32.652 48.7093 31.9591 48.2804C31.4063 47.9702 30.8386 47.6166 30.2336 47.3158C29.2044 46.7451 28.2405 46.0973 27.354 45.3803C24.6163 43.3146 21.5163 40.9791 17.6917 42.7439C16.0895 43.4821 15.2117 44.9151 14.7038 45.9231C13.267 48.7082 12.6745 51.7434 12.9783 54.7629C13.4227 59.1455 17.3705 62.0083 23.0289 62.058H23.3427C25.7029 62.0645 28.0526 61.7961 30.3232 61.2608C29.2961 63.6584 30.7378 65.2527 34.1739 64.9394C36.8742 64.6913 40.3178 63.4196 42.6932 62.0828C42.4608 62.6067 42.3346 63.1591 42.3198 63.7174C42.3135 64.0808 42.4782 64.4318 42.7788 64.696C43.0795 64.9601 43.4923 65.1164 43.9295 65.1317C45.4459 65.1317 50.4096 61.6175 51.6981 60.6653C50.3199 64.1764 53.8121 65.0077 57.0764 64.1392C59.3734 63.5871 62.3053 62.5728 64.0345 61.5493C64.0345 61.6486 64.0345 61.7478 64.0345 61.8595C64.0345 63.311 64.7815 64.1516 65.9207 64.5331C68.9086 65.5629 75.6987 63.1032 79.2842 61.5214C78.7725 62.4147 78.4252 63.2242 78.4252 63.7701C78.4252 64.7626 79.6203 65.4884 80.7707 65.4884C82.19 65.4884 86.9109 63.3979 89.7681 61.7354C89.6013 62.1076 89.4369 62.4798 89.2751 62.852C88.4459 63.0815 86.1042 63.6553 86.2423 64.4556C86.2423 64.8371 87.5757 65.5256 88.0799 65.7552C86.7018 68.6955 84.909 72.6254 85.3198 75.91C85.458 76.9025 86.0668 78.2021 87.5608 78.1246C90.0893 78.0471 92.1099 73.7326 92.7075 70.7954C93.2603 68.466 92.4797 66.2142 89.7681 65.1814C89.889 64.691 90.0887 64.2163 90.362 63.7701C94.8887 62.2379 97.111 61.5059 101.757 60.6436C101.244 61.5967 100.811 62.5782 100.461 63.5809C100.23 64.2291 100.644 64.9177 101.47 64.9177C103.677 64.9177 110.299 59.192 113.929 56.3664C116.047 54.7225 116.828 54.5333 115.173 56.8999C112.506 60.9073 106.482 68.5063 104.734 70.2371C101.795 73.0627 97.335 75.7735 95.5423 78.5588C95.0343 79.3994 95.7253 80.547 97.1483 79.7065C99.4938 77.9881 104.782 72.2997 105.739 71.0001C111.165 66.9524 115.763 63.7453 121.829 60.3862C122.239 59.71 121.873 59.2386 121.138 59.5487ZM37.6922 55.7771C38.245 55.6623 38.4392 56.0438 38.1516 56.7324C37.371 59.0618 33.6025 59.71 32.7733 59.6325C33.6062 58.5655 36.2692 55.9694 37.6922 55.7771ZM10.263 26.6214C10.0971 26.3689 9.95352 26.1066 9.83347 25.8367C10.0538 25.7654 10.2705 25.6878 10.4871 25.601C10.3813 25.9349 10.3064 26.275 10.263 26.6183V26.6214ZM10.6365 24.4906C10.263 24.2146 9.84468 23.9044 9.44878 23.5601C9.4984 22.868 9.74685 22.1959 10.1733 21.5999C10.2693 21.4699 10.374 21.3446 10.4871 21.2246C10.8776 21.9558 11.3242 22.6655 11.8242 23.3492C11.5954 23.6189 11.3858 23.8996 11.1967 24.1897C11.01 24.2921 10.8232 24.3913 10.6253 24.4999L10.6365 24.4906ZM27.5519 9.9686C28.1194 9.69959 28.7255 9.49116 29.3559 9.34827C29.7617 9.69173 30.1362 10.0598 30.4763 10.4494C30.4091 10.5145 30.3419 10.5827 30.2784 10.6541C29.9562 11.0141 29.7041 11.4139 29.5314 11.8389C28.8444 11.6619 28.1293 11.572 27.41 11.5722H27.3017H26.9282C27.2363 11.0682 27.4468 10.527 27.5519 9.9686ZM27.1187 7.85637C27.5674 8.08485 27.9967 8.33875 28.4035 8.61628C28.1103 8.70618 27.8235 8.80973 27.5444 8.92645C27.5444 8.88612 27.5444 8.8458 27.5183 8.80548C27.4384 8.47533 27.3039 8.15593 27.1187 7.85637ZM30.4539 15.2476H30.2037L29.9086 15.0988C29.9945 14.4784 30.1141 13.8581 30.2597 13.2378C30.2597 13.2005 30.2597 13.1602 30.2859 13.123C30.9491 13.4241 31.5193 13.8487 31.9516 14.3637C32.1158 14.5677 32.2523 14.7861 32.3587 15.015C32.3587 15.1174 32.3587 15.2166 32.3587 15.3252C31.7261 15.2693 31.0901 15.2434 30.4539 15.2476ZM31.9479 16.9101C31.7877 17.2844 31.5404 17.6287 31.22 17.9235C30.8995 18.2184 30.5123 18.4579 30.0804 18.6285C29.9663 18.6716 29.849 18.7089 29.7294 18.7401C29.6926 17.888 29.7101 17.0349 29.7817 16.1843H29.9161C30.5634 16.4782 31.2424 16.7212 31.9442 16.9101H31.9479ZM27.3241 12.4996C27.9576 12.4925 28.5884 12.5711 29.1915 12.7322C28.7889 13.0954 28.3544 13.4333 27.8918 13.7433C27.7274 13.5976 27.5668 13.4332 27.4137 13.2936C27.1705 13.0502 26.946 12.7943 26.7414 12.5275C26.9381 12.513 27.1324 12.5037 27.3241 12.4996ZM28.9114 14.2644C28.9114 14.3389 28.8853 14.4164 28.8741 14.4939L28.7247 14.3947L28.9114 14.2644ZM28.6574 16.2371C28.5896 17.1126 28.5759 17.9905 28.6164 18.8673C28.0522 18.8434 27.4996 18.7252 26.9917 18.5199C26.9306 17.8201 26.8184 17.124 26.6555 16.4356C27.2942 16.3363 27.9627 16.2681 28.6574 16.2278V16.2371ZM26.902 15.4617C27.212 15.3066 27.5146 15.1515 27.8171 14.9685C27.9852 15.0926 28.157 15.2104 28.3325 15.3252C27.8432 15.3469 27.3652 15.3934 26.902 15.4523V15.4617ZM27.0365 19.5372C27.5658 19.6936 28.1219 19.7784 28.6836 19.7885V19.8133L28.5939 19.835C28.0748 19.9591 27.5482 20.0676 27.0178 20.1607C27.029 19.9467 27.0365 19.7388 27.0365 19.5372ZM26.9954 14.2985C26.7228 14.4536 26.4464 14.6087 26.1663 14.7328C26.1663 14.7017 26.1438 14.6676 26.1289 14.6366C26.1289 14.2117 26.0878 13.7774 26.0579 13.337C26.2185 13.5262 26.3829 13.7092 26.5584 13.886C26.734 14.0628 26.846 14.1652 26.9954 14.2985ZM26.8273 24.9466C26.9386 25.3914 26.9937 25.8446 26.9917 26.2989C26.9917 26.4509 26.9917 26.609 27.0141 26.7579C27.0365 26.9068 27.0141 26.9719 27.0402 27.0681C27.0402 27.1115 27.0402 27.1549 27.0402 27.1984C26.094 27.3369 25.0981 27.4496 24.0523 27.5364L23.5742 27.6016C23.3725 27.5085 23.1783 27.4124 22.9878 27.2914L23.0364 27.2604C24.4131 26.3226 25.4735 25.1043 26.114 23.7245C26.445 24.0895 26.6873 24.5046 26.8273 24.9466ZM25.9048 11.2L25.8413 11.0728C25.9197 11.0046 26.0019 10.9363 26.0878 10.8712C26.0318 10.9797 25.972 11.0883 25.9048 11.2ZM25.9048 19.0751C25.9232 19.4887 25.9157 19.9028 25.8824 20.3158C25.5799 20.3561 25.2773 20.3902 24.9748 20.4212C25.1905 20.1388 25.3803 19.8433 25.5425 19.5372C25.6277 19.3678 25.7025 19.195 25.7666 19.0193L25.9048 19.0751ZM25.7629 21.2866L25.7069 21.5471C25.6807 21.6805 25.6471 21.8108 25.6135 21.941C25.3408 21.7456 25.057 21.5626 24.7731 21.3889C25.0943 21.361 25.4267 21.3269 25.7629 21.2866ZM24.5154 19.1619C24.2586 19.6507 23.934 20.1129 23.5481 20.5391H23.2978C22.115 19.8848 20.8455 19.3457 19.5144 18.9324C20.8305 18.1832 22.2437 17.559 23.7274 17.0714C23.9102 17.3627 24.1239 17.6398 24.366 17.8996C24.5071 18.0538 24.6605 18.1999 24.8254 18.3369C24.7474 18.6188 24.6413 18.8947 24.5079 19.1619H24.5154ZM19.9476 24.3603C19.8132 24.1928 19.6712 24.0254 19.5293 23.8641C18.8789 22.6611 18.6015 21.3421 18.7226 20.0273C19.3242 20.6068 20.0962 21.047 20.9635 21.3052C21.5121 21.4412 22.083 21.505 22.6554 21.4944L19.9476 24.3603ZM20.4705 27.462C20.2912 27.5302 20.097 27.5954 19.9252 27.6574C19.1596 27.6285 18.3972 27.557 17.6432 27.4434L17.3556 27.248C17.7666 27.2024 18.1647 27.0974 18.5321 26.9378C19.0166 26.7136 19.4431 26.4122 19.787 26.0507L19.9364 26.2151C20.1634 26.6205 20.3422 27.0433 20.4705 27.4775V27.462ZM18.0652 16.5814C18.3043 16.5472 18.5396 16.51 18.7749 16.4635C18.7412 16.5193 18.7076 16.5752 18.6777 16.631C18.4649 16.6217 18.2594 16.6062 18.0652 16.5814ZM18.2221 17.5367C18.1922 17.608 18.1623 17.6793 18.1362 17.7507C18.0839 17.67 18.0353 17.5925 17.9905 17.5119L18.2221 17.5367ZM22.9841 15.0553C23.0125 15.3335 23.0674 15.6094 23.1484 15.8804C22.4762 16.0758 21.83 16.234 21.2362 16.358C20.8214 16.4461 20.4013 16.5155 19.9775 16.5658C20.0821 16.4077 20.1904 16.2557 20.3099 16.1006C21.2448 15.8373 22.1417 15.4889 22.9841 15.0615V15.0553ZM21.8636 14.5218C22.0018 14.4102 22.1437 14.3047 22.2894 14.2117C22.5189 14.0477 22.7583 13.8935 23.0065 13.7495C23.0065 13.8178 22.9841 13.886 22.9766 13.9542C22.6199 14.1623 22.2495 14.3539 21.8674 14.5281L21.8636 14.5218ZM20.2165 17.4715C19.8841 17.6359 19.5555 17.8034 19.2305 17.9771C19.2903 17.8313 19.3575 17.6855 19.4247 17.5429C19.6862 17.5336 19.9514 17.5119 20.2203 17.4777L20.2165 17.4715ZM23.4248 12.4344C22.758 12.7296 22.1318 13.0843 21.5574 13.4921C20.8035 14.0269 20.1368 14.641 19.5741 15.319C18.8362 15.5088 18.0803 15.6468 17.3145 15.7315C17.2223 15.2159 17.2413 14.6908 17.3705 14.1807C17.744 12.7942 19.309 11.476 21.0494 11.476C21.2489 11.4756 21.4479 11.4923 21.6433 11.5256C22.3325 11.6578 22.9559 11.9632 23.4286 12.4003L23.4248 12.4344ZM17.3332 18.4703C17.1315 18.4424 16.9261 18.4206 16.7169 18.402H16.5488C16.6086 18.0484 16.6497 17.6918 16.6684 17.3289C16.8532 17.7234 17.0755 18.105 17.3332 18.4703ZM16.5862 19.3263L16.8738 19.3542L16.1791 19.7978C16.2351 19.6365 16.2837 19.4876 16.3285 19.3077L16.5862 19.3263ZM16.7617 20.6011L17.5797 20.08C17.5573 20.3623 17.5535 20.6414 17.5797 20.9237C17.5981 21.3566 17.6543 21.7878 17.7478 22.214C17.2203 21.8011 16.6532 21.4246 16.0521 21.0881C16.2837 20.9237 16.5302 20.7593 16.7767 20.6011H16.7617ZM18.562 24.3448C18.7301 24.6484 18.9171 24.9445 19.1222 25.2319L19.0998 25.2536C18.8125 25.6094 18.4416 25.9133 18.0092 26.1469C17.5464 26.3078 17.0506 26.3931 16.5488 26.3981L16.209 26.4198C15.1934 25.615 14.2775 24.7276 13.475 23.771C14.1641 23.1693 14.7544 22.4945 15.2304 21.7642C16.517 22.453 17.6452 23.3269 18.562 24.3448ZM11.8167 25.2753C11.8541 25.1978 11.8951 25.1171 11.9362 25.0396L12.0707 24.8101C12.2686 24.686 12.4666 24.5588 12.6571 24.4224C13.2895 25.1652 13.9873 25.8681 14.7449 26.5253L14.3303 26.5532C13.4476 26.1889 12.6063 25.7591 11.8167 25.2691V25.2753ZM12.3172 26.6711L11.3723 26.7269C11.3996 26.5511 11.4333 26.3775 11.4731 26.2058C11.757 26.3764 12.0408 26.5346 12.3172 26.6711ZM15.096 19.5838C14.9901 19.8775 14.8654 20.1664 14.7225 20.4491C14.0891 20.1809 13.4278 19.9609 12.7467 19.7916C13.5189 19.5213 14.3388 19.3568 15.1744 19.3046C15.1632 19.407 15.1296 19.5031 15.0997 19.5931L15.096 19.5838ZM14.0987 21.2246C13.5471 21.6388 13.0269 22.0811 12.5413 22.549C12.08 21.8898 11.672 21.2059 11.32 20.5019L11.3685 20.4677C12.318 20.6173 13.238 20.8751 14.1025 21.2339L14.0987 21.2246ZM11.3498 27.6698C11.9288 27.6388 12.5077 27.6016 13.0828 27.5644L14.1174 27.493C14.6149 27.6866 15.1263 27.8545 15.6487 27.9955C16.1486 28.1302 16.6574 28.241 17.1726 28.3274C16.4443 28.4483 15.7309 28.5321 15.0698 28.5972C14.2145 28.6841 13.3144 28.7461 12.5562 28.5135C12.1115 28.3685 11.7092 28.1464 11.376 27.8621C11.3611 27.797 11.3536 27.7318 11.3498 27.6698ZM19.7273 30.7032C18.8346 31.3856 17.4676 31.4787 16.4742 31.4321C15.3761 31.3856 13.841 31.153 12.7392 30.3186C12.3575 30.0261 12.0469 29.6755 11.8242 29.2858C11.9325 29.3292 12.0445 29.3664 12.1566 29.4005C13.1501 29.7107 14.1996 29.6363 15.1893 29.537C16.2656 29.4369 17.3333 29.2815 18.3864 29.0718C19.0117 29.4128 19.6601 29.7235 20.3286 30.0023C20.185 30.2662 19.9808 30.5043 19.7273 30.7032ZM20.6274 29.0966C20.3547 28.9756 20.0821 28.8484 19.8169 28.7151L20.112 28.6251H20.6535C20.6578 28.7774 20.649 28.9298 20.6274 29.0811V29.0966ZM20.9075 25.7127L20.7768 25.4955L20.59 25.2071L23.6676 21.9534L23.7199 21.9007C24.2664 22.2186 24.7844 22.5689 25.2699 22.9491C24.7247 24.3548 23.7075 25.6019 22.338 26.5439C22.2446 26.6028 22.1512 26.6649 22.0578 26.7207C21.6389 26.4139 21.2539 26.0765 20.9075 25.7127ZM24.381 29.9992C23.4588 30.006 22.5469 29.8384 21.7142 29.5091C21.7768 29.2132 21.8056 28.9131 21.8001 28.6127C22.338 28.5972 22.8571 28.5693 23.3576 28.5383C24.2788 28.9294 25.2548 29.2242 26.2634 29.416C25.7183 29.7702 25.0537 29.9741 24.3623 29.9992H24.381ZM26.9618 28.591C26.5384 28.5207 26.1196 28.4327 25.7069 28.3274C26.17 28.2746 26.6256 28.2188 27.0738 28.1537C27.0481 28.3027 27.0043 28.4493 26.9431 28.591H26.9618ZM28.1756 27.0402C28.1756 26.9378 28.1756 26.8324 28.1532 26.73C28.1308 26.6277 28.1532 26.4198 28.1308 26.2896C28.1306 25.7683 28.0642 25.2485 27.9329 24.7387C27.6827 23.9755 27.2093 23.2755 26.5547 22.7009C26.663 22.3908 26.7489 22.062 26.8236 21.7332C26.8647 21.5347 26.902 21.3362 26.9319 21.1377C27.5718 21.0322 28.2043 20.9061 28.8292 20.7593C29.0272 21.9783 29.4978 23.3895 30.6183 24.4999C31.2194 25.0915 31.99 25.548 32.8592 25.8274C31.3432 26.3559 29.7682 26.759 28.157 27.0309L28.1756 27.0402ZM37.3411 23.5384L37.1133 23.6997C36.2934 24.26 35.4104 24.7534 34.4764 25.173C33.9017 25.1375 33.3414 25.007 32.8283 24.7891C32.3152 24.5713 31.8597 24.2705 31.4885 23.9044C30.4988 22.915 30.0916 21.5999 29.9124 20.4553C30.9604 20.1719 31.9049 19.6725 32.6575 19.0038C33.1699 18.5027 33.5207 17.9019 33.6772 17.2575C33.9999 17.3035 34.3253 17.3356 34.652 17.3537C35.0699 17.3753 35.489 17.3753 35.9069 17.3537C36.1506 17.5163 36.3711 17.7016 36.5643 17.9058C37.2926 18.6595 37.6847 19.7171 37.752 21.1346C37.8132 21.9507 37.6734 22.7687 37.3411 23.5384ZM38.8351 22.2977C38.8796 21.905 38.892 21.5101 38.8724 21.116C38.7865 19.4938 38.3197 18.2625 37.442 17.3475L37.3262 17.2296C38.8162 16.9991 40.1866 16.3976 41.2553 15.5051C41.3978 15.3828 41.5324 15.2544 41.6587 15.1205C41.9986 17.5398 40.949 20.1824 38.8351 22.2915V22.2977ZM37.4457 8.96056C38.9621 8.96056 40.3664 9.50025 41.1208 10.3501C41.5937 10.9152 41.8252 11.5954 41.7782 12.2824C41.6388 12.0758 41.4815 11.8778 41.3076 11.69C40.7616 11.1463 40.1149 10.6783 39.3916 10.3036C38.4731 9.80058 37.4988 9.37164 36.4821 9.0226C36.7955 8.98891 37.111 8.97027 37.427 8.96677L37.4457 8.96056ZM32.243 10.3997C32.5456 10.2363 32.86 10.0882 33.1842 9.9562C33.6291 9.76836 34.0854 9.59962 34.5511 9.45063C36.0457 9.81044 37.4634 10.3619 38.7529 11.0852C39.3751 11.404 39.9323 11.8029 40.4037 12.2669C40.7645 12.6656 41.0434 13.111 41.2292 13.5851C41.2628 13.6596 41.2889 13.734 41.3188 13.8085C41.1039 14.1982 40.8109 14.5548 40.4523 14.863C39.3062 15.7764 37.8093 16.3255 36.2244 16.4139C35.452 15.9862 34.5889 15.6841 33.6809 15.5237C33.6331 15.2994 33.5645 15.0785 33.4755 14.863C33.4685 14.361 33.3984 13.861 33.2663 13.3711C33.0193 12.4624 32.6128 11.5887 32.0599 10.7781C32.1122 10.651 32.1869 10.5424 32.243 10.3997ZM31.989 12.9989C31.6791 12.7656 31.3426 12.5579 30.9843 12.3786C31.1412 12.1925 31.2906 12.0002 31.4287 11.8079C31.6519 12.1924 31.8392 12.5906 31.989 12.9989ZM30.678 9.14356C30.9619 9.11875 31.2457 9.10634 31.5371 9.10324C31.4698 9.33586 31.3914 9.56539 31.3018 9.79491C31.1038 9.57159 30.8984 9.35448 30.678 9.14356ZM25.4716 5.65729C25.7009 5.31357 26.0199 5.01683 26.4053 4.78882C27.361 4.19031 28.5371 3.88557 29.7331 3.92656C30.0018 3.92288 30.2669 3.9774 30.5025 4.08475C30.6871 4.21289 30.8362 4.37265 30.9395 4.5531C31.6422 5.66428 31.921 6.92679 31.7387 8.17274C31.1129 8.16864 30.4879 8.2112 29.8713 8.29991L29.7555 8.31852C28.57 7.3955 27.1727 6.6803 25.6471 6.21559L25.5052 6.09773L25.3595 5.97366C25.3871 5.866 25.4246 5.76023 25.4716 5.65729ZM25.0981 7.11197C25.7375 7.62042 26.1984 8.26371 26.4314 8.97297C26.4691 9.11873 26.4879 9.26743 26.4875 9.41651C26.1601 9.5983 25.8469 9.7972 25.55 10.012C25.4426 9.61783 25.3104 9.22856 25.1541 8.8458C25.0596 8.27136 25.0358 7.69042 25.0831 7.11197H25.0981ZM25.0159 17.1055C24.9337 17.0042 24.8553 16.9008 24.7806 16.7954L25.0383 16.7333C25.0495 16.8512 25.042 16.9784 25.0159 17.1055ZM25.0159 14.801V15.0088C25.0159 15.0833 25.0159 15.1577 25.0159 15.2321C24.7432 15.3407 24.4669 15.443 24.1942 15.5423C24.0928 15.1804 24.0451 14.8096 24.0523 14.4381C24.254 14.3078 24.4519 14.1714 24.6424 14.0287C24.7993 14.2892 24.9151 14.5498 25.0159 14.801ZM23.9739 6.7894H23.9925C23.9925 6.80491 23.9925 6.81731 23.9925 6.83282L23.9514 6.78319L23.9739 6.7894ZM23.3165 5.74414L22.9094 5.70071C22.7547 5.56637 22.5913 5.43902 22.4201 5.31921C22.7374 5.43215 23.0381 5.57471 23.3165 5.74414ZM18.9691 5.26958C19.2529 5.21685 19.5405 5.17343 19.8318 5.14241C20.2579 5.26516 20.6643 5.43078 21.042 5.63558C20.5788 5.63558 20.097 5.65419 19.6003 5.68831C19.1894 5.71312 18.7562 5.75344 18.3043 5.80927C18.5171 5.60766 18.7375 5.42466 18.9691 5.26958ZM19.6899 6.6157C20.581 6.55379 21.4768 6.55379 22.3678 6.6157C23.0233 7.26291 23.5434 7.99681 23.9066 8.78687C23.9552 8.88922 24 8.99158 24.0448 9.09704C24.1494 9.69384 24.3195 10.2815 24.5528 10.8526C24.3418 11.0731 24.1472 11.3041 23.9701 11.5442C23.3905 11.0839 22.6716 10.7624 21.8898 10.6138C19.7945 10.2416 17.0344 11.476 16.321 13.8519C16.066 12.8391 15.6971 11.8484 15.2192 10.8929C15.5319 9.4561 16.212 8.09171 17.2137 6.89175C18.0291 6.74298 18.8568 6.64551 19.6899 6.6002V6.6157ZM15.3387 14.5498C15.2305 14.2457 15.1543 13.9343 15.1109 13.6193C15.2005 13.9542 15.2752 14.2458 15.3387 14.5498ZM16.6833 5.92713L16.5264 6.09773C16.3546 6.13495 16.1828 6.17837 16.0073 6.22179C16.2351 6.11634 16.4592 6.01708 16.6833 5.92713ZM15.5628 7.32909C15.0756 8.05645 14.6896 8.82753 14.4125 9.62742C14.0636 9.16443 13.5792 8.78241 13.0044 8.51702C13.7793 8.01338 14.6437 7.61263 15.5666 7.32909H15.5628ZM12.1006 9.23041C12.8475 9.35758 13.49 9.9562 14.0502 11.017C13.9113 11.7836 13.8775 12.5609 13.9493 13.3339C13.996 14.2037 14.2835 15.0528 14.7897 15.8152C13.9978 15.7917 13.2222 15.6221 12.5189 15.319C11.2976 14.7452 10.6141 13.6503 10.2593 12.8376C10.2194 12.7446 10.1821 12.6515 10.1472 12.5585C10.4412 11.327 11.1156 10.1802 12.1043 9.23041H12.1006ZM9.85962 14.3606C10.3643 15.0925 11.0921 15.7011 11.9698 16.1254C13.0828 16.5898 14.323 16.8037 15.5666 16.7457C15.5639 17.2804 15.5152 17.8142 15.4209 18.3431C13.8854 18.3862 12.3935 18.7777 11.1071 19.4752L10.8568 19.4504C10.5336 18.6642 10.2839 17.8585 10.1099 17.0404C9.9212 16.1562 9.8436 15.2581 9.87829 14.3606H9.85962ZM8.84746 12.1584C8.88107 12.3073 8.92589 12.4685 8.97444 12.6081C8.63817 14.1349 8.63817 15.6997 8.97444 17.2265C9.13143 17.9708 9.34855 18.7055 9.62432 19.4256C8.61993 19.4273 7.6277 19.6081 6.71482 19.956C6.60093 19.6567 6.51355 19.3509 6.45337 19.041C6.02759 16.966 6.82687 14.7048 8.86613 12.1584H8.84746ZM8.16397 25.2691C7.67228 25.3622 7.16168 25.3622 6.67 25.2691C5.66531 25.0458 4.92953 24.0874 5.03037 23.1352C5.13428 22.4424 5.541 21.8055 6.17326 21.3455C6.73182 22.2821 7.45148 23.1461 8.30963 23.9106C8.31133 24.3441 8.36513 24.7763 8.47023 25.2009C8.36565 25.235 8.26481 25.2505 8.16397 25.2691ZM8.47396 22.6389C7.92837 22.0822 7.46331 21.4742 7.08831 20.8275C7.9619 20.4867 8.92128 20.325 9.88576 20.3561C9.6238 20.5903 9.39105 20.8459 9.19107 21.1191C8.85418 21.59 8.61197 22.1033 8.47396 22.6389ZM88.5393 64.3687L88.4497 64.6789C88.3115 64.6417 88.1733 64.6417 88.1285 64.5269L88.5393 64.3687ZM91.2994 70.8574C91.0385 72.1231 90.5421 73.3474 89.8279 74.4863C87.8521 77.588 86.3805 77.8982 86.6569 74.1048C86.8399 71.3133 88.1285 68.7204 89.2303 66.2018C91.4974 66.7353 91.6206 69.4461 91.2994 70.8574Z" fill="#008080"/>
</svg>
