<svg width="132" height="343" viewBox="0 0 132 343" fill="none" xmlns="http://www.w3.org/2000/svg">
<path d="M63.0884 80.1838L169.375 322.549L163.405 322.915L63.0884 80.1838Z" fill="#85CDB2"/>
<path d="M61.4616 39.1618C61.4616 39.1618 68.6423 72.5921 64.3993 82.0873C64.3993 82.0873 51.5978 63.5129 61.4616 39.1618ZM87.2989 46.8684C87.2989 46.8684 78.9782 75.9298 70.9395 81.9337C70.9497 81.9317 67.6093 62.6369 87.2989 46.8684Z" fill="#85CDB2"/>
<path d="M33.7527 32.5407C33.7527 32.5407 63.9114 66.9408 62.3337 80.6142C62.3337 80.6142 31.3769 67.0444 33.7527 32.5407ZM100.184 58.254C100.184 58.254 92.5514 95.2152 89.7498 105.634C89.0966 108.089 88.356 109.24 87.5349 109.489C85.2239 110.207 82.7001 102.689 81.9569 97.4308C80.9905 90.4191 83.576 68.3219 100.184 58.254Z" fill="#85CDB2"/>
<path d="M86.3689 107.452C86.3689 107.452 86.4472 107.257 86.4484 107.555C86.4461 110.81 86.4074 130.533 87.3528 133.823C88.3964 137.414 84.8853 129.292 84.8853 129.292L86.3689 107.452ZM69.7562 79.9518C69.7562 79.9518 70.0896 79.7532 70.0706 79.8881C69.3627 83.0948 71.1431 95.9779 72.0985 99.2652C73.1422 102.857 70.408 96.4842 70.408 96.4842L69.7562 79.9518ZM108.762 70.4633C108.762 70.4633 108.98 118.099 103.867 129.302C97.3689 143.609 92.118 118.662 92.6242 113.911C93.1304 109.159 93.5208 81.9861 108.762 70.4633Z" fill="#85CDB2"/>
<path d="M69.7158 79.0897C69.7158 79.0897 70.05 78.8908 70.031 79.026C69.3213 82.2383 71.1062 95.1439 72.0641 98.437C73.1104 102.035 70.3693 95.6511 70.3693 95.6511L69.7158 79.0897ZM99.2874 131.276C99.2874 131.276 99.3704 131.056 99.3193 131.401C99.3342 134.98 99.4464 157.048 100.385 160.727C101.414 164.758 97.8726 155.659 97.8726 155.659L99.2874 131.276ZM138.218 86.1377C138.218 86.1377 126.823 141.447 119.079 153.64C109.212 169.164 106.826 138.564 108.489 133.093C110.152 127.623 120.449 96.9305 138.218 86.1377Z" fill="#85CDB2"/>
<path d="M112.684 155.99C112.684 155.99 112.905 155.047 112.906 155.43C112.935 159.5 111.028 181.737 112.082 185.864C113.308 190.411 109.312 180.993 109.312 180.993L112.684 155.99ZM155.237 108.521C155.237 108.521 139.234 166.451 131.447 179.471C121.598 196.025 120.559 161.496 123.04 151.813C125.656 141.899 137.458 119.988 155.237 108.521Z" fill="#85CDB2"/>
<path d="M125.088 182.413C125.088 182.413 125.305 181.412 125.312 181.817C125.344 186.146 123.518 209.805 124.637 214.19C125.862 218.984 121.851 208.993 121.851 208.993L125.088 182.413ZM167.053 134.443C167.053 134.443 151.069 192.313 143.292 205.32C133.454 221.857 132.417 187.363 134.895 177.69C137.479 167.804 149.265 145.904 167.053 134.443Z" fill="#85CDB2"/>
<path d="M137.073 208.25C137.073 208.25 137.29 207.246 137.297 207.652C137.329 211.991 135.545 236.48 136.667 240.874C137.895 245.68 133.349 234.75 133.349 234.75L137.073 208.25ZM186.924 156.121C186.924 156.121 164.932 216.572 157.175 229.602C147.31 246.179 147.804 206.863 150.289 197.166C152.824 187.243 169.086 167.61 186.924 156.121Z" fill="#85CDB2"/>
<path d="M151.866 231.867C151.866 231.867 152.027 231.316 152.051 231.83C152.158 237.075 149.484 266.374 150.672 271.702C151.961 277.468 146.594 264.45 146.594 264.45L151.866 231.867ZM212.598 183.2C206.535 197.439 199.446 211.05 191.392 223.92C183.262 236.506 172.03 246.681 167.863 251.392C154.661 266.292 164.702 228.78 169.177 219.56C173.771 210.135 192.655 191.845 212.598 183.2Z" fill="#85CDB2"/>
<path d="M39.4925 54.6828C39.4925 54.6828 57.5438 84.2207 65.8214 90.4008C65.8113 90.4029 60.1643 70.9101 39.4925 54.6828ZM31.5413 69.9597C31.5413 69.9597 54.5283 90.5284 62.4434 92.5752C54.5609 81.5596 43.6254 73.5565 31.5413 69.9597Z" fill="#85CDB2"/>
<path d="M48.7303 39.9276C48.7303 39.9276 55.7678 78.0115 65.2724 88.471C65.2624 88.4731 71.9009 66.817 48.7303 39.9276ZM32.348 83.7018C32.348 83.7018 59.6931 110.711 67.7111 118.128C69.5967 119.874 70.6955 120.532 71.2328 120.457C72.8318 120.222 69.2846 113.312 66.3046 108.832C62.3184 102.849 46.953 86.0027 32.348 83.7018Z" fill="#85CDB2"/>
<path d="M70.4268 119.131C70.4268 119.131 70.2546 118.999 70.4554 119.244C72.5657 121.882 85.3863 137.834 87.0442 140.838C88.8549 144.108 85.3422 136.308 85.3422 136.308L70.4268 119.131ZM60.9231 91.0388C60.9231 91.0388 60.6231 90.9929 60.7098 91.0823C63.1416 93.429 70.6189 104.523 72.2654 107.482C74.0761 110.752 71.3119 104.644 71.3119 104.644L60.9231 91.0388ZM35.1985 97.0547C35.1985 97.0547 65.9722 135.642 75.8269 142.957C88.383 152.291 74.8261 130.222 71.482 126.551C68.138 122.88 50.3187 101.025 35.1985 97.0547Z" fill="#85CDB2"/>
<path d="M60.4101 90.8866C60.4101 90.8866 60.1108 90.8408 60.1973 90.93C62.6226 93.273 70.0801 104.349 71.7222 107.303C73.5281 110.568 70.7713 104.47 70.7713 104.47L60.4101 90.8866ZM79.359 143.325C79.359 143.325 79.1715 143.173 79.3904 143.449C81.7226 146.393 95.8975 164.185 97.7785 167.493C99.8335 171.111 95.7557 162.527 95.7557 162.527L79.359 143.325ZM30.753 120.565C30.753 120.565 72.1669 161.201 83.9218 168.326C98.876 177.398 80.2976 151.884 75.9574 148.08C71.6172 144.275 46.5994 123.008 30.753 120.565Z" fill="#85CDB2"/>
<path d="M88.3358 168.476C88.3358 168.476 87.6139 167.797 87.8616 168.094C90.5001 171.4 105.946 188.741 108.055 192.466C110.369 196.533 106.279 187.548 106.279 187.548L88.3358 168.476ZM36.0444 144.946C36.0444 144.946 81.7903 186.268 94.1447 194.099C109.866 204.069 87.9205 175.719 80.374 168.743C72.6452 161.6 52.4665 148.034 36.0444 144.946Z" fill="#85CDB2"/>
<path d="M98.8607 194.428C98.8607 194.428 98.1041 193.697 98.3575 194.016C101.158 197.539 117.481 216.069 119.776 220.018C122.272 224.297 117.793 214.833 117.793 214.833L98.8607 194.428ZM46.5039 170.256C46.5039 170.256 92.2283 211.561 104.577 219.388C120.291 229.355 98.3555 201.017 90.8126 194.043C83.1006 186.912 62.9096 173.309 46.5039 170.256Z" fill="#85CDB2"/>
<path d="M109.269 219.875C109.269 219.875 108.511 219.142 108.765 219.462C111.57 222.991 128.413 242.208 130.701 246.165C133.202 250.451 128.379 240.033 128.379 240.033L109.269 219.875ZM50.3013 195.118C50.3013 195.118 100.706 236.408 113.068 244.214C128.81 254.197 102.976 222.509 95.4194 215.524C87.6832 208.383 66.7365 198.176 50.3013 195.118Z" fill="#85CDB2"/>
<path d="M115.986 244.1C115.986 244.1 115.549 243.725 115.864 244.125C119.181 248.362 139.315 270.893 142.144 275.563C145.232 280.667 139.514 268.343 139.514 268.343L115.986 244.1ZM54.6377 226.185C66.4909 235.274 78.7268 243.704 91.2921 251.44C103.403 258.703 115.501 262.958 120.591 265.288C136.703 272.651 107.638 246.087 99.5045 240.262C91.1752 234.299 70.1023 226.174 54.6377 226.185ZM125.014 265.659C125.014 265.659 124.577 265.284 124.892 265.684C128.209 269.921 149.921 294.295 152.572 299.025C153.184 300.09 148.811 290.037 148.811 290.037L125.014 265.659ZM66.6179 253.792C79.9393 264.017 93.6782 273.526 107.779 282.28C121.365 290.515 134.912 295.427 140.639 298.078C158.684 306.487 125.953 276.673 116.807 270.103C107.431 263.425 83.8896 254.079 66.6179 253.792ZM83.4923 301.028C83.4923 301.028 106.579 305.328 125.043 311.213C146.707 318.123 149.901 318.495 154.608 318.214C169.422 317.324 128.495 293.939 119.988 291.961C111.261 289.957 94.2759 292.026 83.4923 301.028Z" fill="#85CDB2"/>
</svg>
