<svg width="34" height="34" viewBox="0 0 34 34" fill="none" xmlns="http://www.w3.org/2000/svg">
<g clip-path="url(#clip0_457_626)">
<path d="M30.7167 15.9418L30.7167 15.9418L25.76 14.0176L27.0873 7.69725C27.1852 7.23156 26.7265 6.84265 26.2831 7.01462L26.2831 7.01463L20.6137 9.21554L17.525 3.70959L17.525 3.70958C17.2971 3.30356 16.7088 3.29917 16.4785 3.70958L16.4785 3.70959L13.3898 9.21554L7.72041 7.01463L7.72038 7.01462C7.27683 6.84257 6.81841 7.23168 6.91615 7.69724L6.91615 7.69725L8.24349 14.0176L3.2868 15.9418L3.28678 15.9418C2.92735 16.0814 2.791 16.5196 3.00783 16.8384L6.35348 21.7585L4.98036 24.2063L5.06758 24.2552L4.98036 24.2063C4.75633 24.6057 5.0455 25.0997 5.50363 25.0997H8.62557L11.5065 29.3364C11.8744 29.8776 12.7244 29.5174 12.5897 28.8757L12.4918 28.8963L12.5897 28.8757L11.7968 25.0997H22.2069L21.4139 28.8757C21.4139 28.8757 21.4139 28.8757 21.4139 28.8757C21.2794 29.516 22.1283 29.8787 22.497 29.3364C22.497 29.3364 22.497 29.3363 22.497 29.3363L25.3779 25.0997H28.4998C28.9579 25.0997 29.2472 24.6058 29.0231 24.2063L29.0231 24.2063L27.65 21.7585L30.9956 16.8384C31.2126 16.5195 31.076 16.0814 30.7167 15.9418ZM26.8961 22.867L27.4755 23.8998H26.1938L26.8961 22.867ZM26.2402 21.6978L24.7429 23.8998H23.6848L24.7173 18.983L26.2402 21.6978ZM25.092 17.1987L25.5101 15.2077L29.5794 16.7874L26.9941 20.5893L25.092 17.1987ZM24.3765 14.7676L24.1999 15.6084L23.5478 14.4459L24.3765 14.7676ZM21.2066 10.2724L25.6856 8.53363L24.6264 13.5775L22.6248 12.8005L21.2066 10.2724ZM20.0768 10.7109L20.866 12.1177L18.6595 11.2611L20.0768 10.7109ZM17.0017 10.6177L14.5195 9.65408L17.0017 5.22927L19.4839 9.65408L17.0017 10.6177ZM13.9266 10.711L15.344 11.2612L13.1375 12.1178L13.9266 10.711ZM8.31785 8.53363L12.7969 10.2724L11.3787 12.8005L9.37704 13.5775L8.31785 8.53363ZM9.80356 15.6084L9.62698 14.7676L10.4557 14.446L9.80356 15.6084ZM4.42409 16.7874L8.49336 15.2077L8.91148 17.1987L7.00941 20.5893L4.42409 16.7874ZM7.76316 21.6978L9.28614 18.983L10.3187 23.8998H9.26053L7.76316 21.6978ZM7.80961 23.8998H6.52794L7.10729 22.867L7.80961 23.8998ZM10.5707 25.0997L10.7915 26.1512L10.0765 25.0997H10.5707ZM11.5447 23.8998L10.1783 17.3928L12.2144 13.7632L17.0017 11.9047L21.789 13.7632L23.8251 17.3928L22.4587 23.8998H11.5447ZM23.4328 25.0996H23.927L23.212 26.1511L23.4328 25.0996Z" fill="#289C90" stroke="#289C90" stroke-width="0.2"/>
<path d="M25.5479 30.6445L25.5479 30.6445C25.8285 30.4683 25.9133 30.0981 25.7371 29.8175L25.6524 29.8706L25.7371 29.8174C25.561 29.537 25.1908 29.4521 24.9101 29.6283L24.9101 29.6283C22.5437 31.1135 19.8088 31.8986 17.001 31.8986C8.78652 31.8986 2.10338 25.2154 2.10338 17.001C2.10338 8.78659 8.78652 2.10345 17.001 2.10345C25.2154 2.10345 31.8985 8.78659 31.8985 17.001C31.8985 20.7634 30.4921 24.3551 27.9381 27.115L28.0115 27.1829L27.9381 27.115C27.5855 27.4961 27.8542 28.1227 28.3785 28.1227C28.5565 28.1227 28.7165 28.0449 28.8262 27.9219C34.5883 21.6869 34.6003 11.835 28.3836 5.61833C22.093 -0.672334 11.9099 -0.673216 5.61833 5.61833C-0.672334 11.909 -0.673216 22.0921 5.61833 28.3836C11.0696 33.8349 19.3691 34.5225 25.5479 30.6445Z" fill="#289C90" stroke="#289C90" stroke-width="0.2"/>
<path d="M26.5919 28.4007L26.5919 28.4007L27.3735 29.311C27.3735 29.311 27.3735 29.311 27.3735 29.311C27.6249 29.0951 27.6537 28.7164 27.4379 28.4651L27.4379 28.4651C27.222 28.2137 26.8433 28.1849 26.5919 28.4007Z" fill="#289C90" stroke="#289C90" stroke-width="0.2"/>
</g>
<defs>
<clipPath id="clip0_457_626">
<rect width="34" height="34" fill="white"/>
</clipPath>
</defs>
</svg>
