<svg width="93" height="91" viewBox="0 0 93 91" fill="none" xmlns="http://www.w3.org/2000/svg">
<path d="M46.3042 5.63272C24.1332 5.63272 6.15625 23.2878 6.15625 45.0617C6.15625 66.8357 24.1332 84.4908 46.3042 84.4908C68.4752 84.4908 86.4522 66.8357 86.4522 45.0617C86.4522 23.2878 68.4752 5.63272 46.3042 5.63272ZM46.3042 77.8019C27.8971 77.8019 12.9671 63.1392 12.9671 45.0617C12.9671 26.9842 27.8971 12.3216 46.3042 12.3216C64.7114 12.3216 79.6414 26.9842 79.6414 45.0617C79.6414 63.1392 64.7114 77.8019 46.3042 77.8019Z" fill="white" fill-opacity="0.88"/>
<path d="M64.8925 43.9302L38.3571 25.0075C38.1443 24.8543 37.8924 24.7621 37.6293 24.7413C37.3663 24.7204 37.1026 24.7717 36.8675 24.8895C36.6324 25.0072 36.4352 25.1867 36.2979 25.408C36.1606 25.6293 36.0886 25.8837 36.0899 26.1429V63.9883C36.0899 65.1413 37.4162 65.7926 38.3571 65.1237L64.8925 46.201C65.0757 46.0713 65.2249 45.9008 65.3278 45.7034C65.4307 45.506 65.4843 45.2874 65.4843 45.0656C65.4843 44.8438 65.4307 44.6252 65.3278 44.4278C65.2249 44.2304 65.0757 44.0599 64.8925 43.9302ZM41.8074 55.7239V34.4073L56.7464 45.0656L41.8074 55.7239Z" fill="white" fill-opacity="0.88"/>
</svg>
