<svg width="304" height="307" viewBox="0 0 304 307" fill="none" xmlns="http://www.w3.org/2000/svg">
<path d="M165.965 59.4391L-17.6331 223.695L-20.3832 217.261L165.965 59.4391Z" fill="#85CDB2"/>
<path d="M205.33 47.4602C205.33 47.4602 177.91 61.0075 167.776 58.5725C167.776 58.5725 179.719 42.2332 205.33 47.4602ZM208.04 74.7663C208.04 74.7663 178.765 71.9795 170.356 65.0838C170.362 65.0935 186.488 58.0786 208.04 74.7663Z" fill="#85CDB2"/>
<path d="M200.965 19.1496C200.965 19.1496 181.213 55.9782 168.279 57.0059C168.279 57.0059 168.93 23.3538 200.965 19.1496ZM202.644 90.7145C202.644 90.7145 166.421 90.1133 155.966 89.2917C153.505 89.105 152.189 88.5816 151.657 87.8055C150.143 85.6237 155.984 81.6559 160.451 79.9062C166.419 77.5978 187.334 75.9728 202.644 90.7145Z" fill="#85CDB2"/>
<path d="M150.772 87.6514C150.772 87.6514 150.977 87.6927 150.709 87.7507C147.774 88.3691 129.974 92.092 127.362 93.6665C124.514 95.3971 130.524 90.3302 130.524 90.3302L150.772 87.6514ZM169.354 65.7623C169.354 65.7623 169.657 66.0584 169.529 66.0652C166.372 65.9675 155.422 70.2083 152.815 71.7925C149.967 73.5231 154.69 69.5684 154.69 69.5684L169.354 65.7623ZM192.503 103.032C192.503 103.032 149.631 112.336 137.617 109.35C122.285 105.568 142.815 95.5493 147.289 95.1504C151.762 94.7514 176.411 89.9601 192.503 103.032Z" fill="#85CDB2"/>
<path d="M168.695 65.7902C168.695 65.7902 168.998 66.0859 168.87 66.0927C165.717 65.995 154.781 70.2298 152.178 71.8118C149.334 73.5399 154.05 69.5908 154.05 69.5908L168.695 65.7902ZM132.804 105.223C132.804 105.223 133.032 105.264 132.703 105.278C129.491 105.974 109.695 110.281 106.738 111.917C103.497 113.71 110.357 108.446 110.357 108.446L132.804 105.223ZM187.891 135.494C187.891 135.494 133.923 134.637 120.076 129.226C102.443 122.33 129.062 114.132 134.6 114.751C140.137 115.371 171.566 119.812 187.891 135.494Z" fill="#85CDB2"/>
<path d="M113.398 124.825C113.398 124.825 114.322 124.866 113.98 124.94C110.357 125.737 89.7916 128.047 86.4963 129.87C82.8889 131.943 89.8215 126.207 89.8215 126.207L113.398 124.825ZM171.531 158.007C171.531 158.007 113.877 153.096 99.3692 147.843C80.9421 141.214 111.394 133.665 120.959 134.294C130.781 135.012 154.714 142.563 171.531 158.007Z" fill="#85CDB2"/>
<path d="M92.8336 143.644C92.8336 143.644 93.8099 143.669 93.4495 143.753C89.5891 144.604 67.7461 147.267 64.2389 149.207C60.4038 151.329 67.8553 145.459 67.8553 145.459L92.8336 143.644ZM151.302 176.212C151.302 176.212 93.6064 171.297 79.0878 166.041C60.6476 159.406 91.1214 151.852 100.694 152.481C110.496 153.176 134.456 160.728 151.302 176.212Z" fill="#85CDB2"/>
<path d="M72.5389 161.702C72.5389 161.702 73.5137 161.727 73.1539 161.811C69.2999 162.66 46.8234 165.51 43.3221 167.447C39.4934 169.565 47.5537 163.015 47.5537 163.015L72.5389 161.702ZM137.379 201.133C137.379 201.133 75.4044 190.794 60.9325 185.585C42.523 178.962 77.7345 172.043 87.2908 172.671C97.067 173.306 120.561 185.674 137.379 201.133Z" fill="#85CDB2"/>
<path d="M54.8851 182.451C54.8851 182.451 55.4319 182.506 54.9859 182.625C50.3834 183.713 23.4749 186.571 19.1948 188.735C14.5644 191.08 24.1175 183.374 24.1175 183.374L54.8851 182.451ZM120.217 232.961C105.394 229.674 90.7493 225.263 76.408 219.766C62.2888 214.139 49.1666 205.018 43.4703 201.809C25.4444 191.638 62.3226 194.474 72.1223 197.141C82.1478 199.887 105.256 215.002 120.217 232.961Z" fill="#85CDB2"/>
<path d="M37.8041 197.746C37.8041 197.746 38.351 197.802 37.9049 197.921C33.3029 199.008 4.25972 202.166 0.125685 204.582C-0.862881 205.129 6.71706 198.464 6.71706 198.464L37.8041 197.746ZM98.2755 251.886C98.2755 251.886 72.6583 246.493 49.0234 237.239C33.1517 231.023 18.421 221.001 12.027 217.475C-8.21679 206.28 33.2705 209.559 44.2976 212.569C55.553 215.581 81.4893 232.175 98.2755 251.886ZM66.4184 287.38C66.4184 287.38 42.6455 265.52 22.8149 250.897C-0.430411 233.761 -3.66008 230.429 -8.1096 224.675C-22.1707 206.386 25.1609 226.742 34.0561 234.349C43.1472 242.129 58.9021 264.344 66.4184 287.38Z" fill="#85CDB2"/>
<path d="M6.31562 213.952C6.31562 213.952 7.67949 214.008 7.45073 214.056C4.95213 214.514 -7.86465 213.303 -9.83702 215.122C-10.2997 215.551 -6.47557 211.807 -6.47557 211.807L6.31562 213.952ZM-8.7143 222.393C-8.7143 222.393 -7.94691 222.623 -8.07164 222.64C-9.35893 222.738 -16.6635 219.893 -17.3726 221.338C-17.5417 221.682 -16.1644 218.656 -16.1644 218.656L-8.7143 222.393Z" fill="#85CDB2"/>
<path d="M185.001 30.7115C185.001 30.7115 165.004 54.5736 162.494 64.0809C162.488 64.0711 178.014 54.6087 185.001 30.7115ZM168.231 25.7125C168.231 25.7125 158.179 52.778 159.271 61.1161C166.301 51.063 169.472 38.5346 168.231 25.7125Z" fill="#85CDB2"/>
<path d="M202.038 37.3289C202.038 37.3289 169.765 52.1269 163.786 63.9884C163.78 63.9785 186.185 66.521 202.038 37.3289ZM155.622 29.1376C155.622 29.1376 141.249 62.6523 137.496 72.3798C136.611 74.6677 136.426 75.9298 136.699 76.4682C137.524 78.0683 142.515 73.0454 145.492 69.0883C149.464 63.7971 159.073 44.6339 155.622 29.1376Z" fill="#85CDB2"/>
<path d="M136.588 76.714C136.588 76.714 136.643 76.516 136.497 76.7647C134.897 79.3913 125.25 95.3345 123.152 97.5794C120.871 100.029 126.611 94.9936 126.611 94.9936L136.588 76.714ZM158.432 61.73C158.432 61.73 158.362 61.4205 158.314 61.5248C157.097 64.4168 149.853 74.0638 147.792 76.2883C145.511 78.738 150.001 74.7812 150.001 74.7812L158.432 61.73ZM143.448 37.1391C143.448 37.1391 120.022 75.466 117.073 86.7585C113.305 101.149 128.204 83.2779 130.278 79.2147C132.352 75.1514 145.475 53.0537 143.448 37.1391Z" fill="#85CDB2"/>
<path d="M158.299 62.0676C158.299 62.0676 158.229 61.7577 158.18 61.8621C156.962 64.7585 149.709 74.4201 147.645 76.6481C145.361 79.1015 149.857 75.1386 149.857 75.1386L158.299 62.0676ZM117.863 91.3597C117.863 91.3597 117.93 91.1415 117.762 91.4156C115.965 94.3355 105.132 112.063 102.836 114.601C100.325 117.373 106.58 111.597 106.58 111.597L117.863 91.3597ZM120.362 38.0379C120.362 38.0379 98.9892 87.617 96.9173 100.829C94.2736 117.638 110.459 93.9745 112.288 88.8672C114.116 83.76 124.056 54.45 120.362 38.0379Z" fill="#85CDB2"/>
<path d="M97.1031 106.946C97.1031 106.946 97.4451 106.102 97.2708 106.404C95.2853 109.645 85.4592 128.235 82.9055 131.034C80.1223 134.101 86.6465 128.335 86.6465 128.335L97.1031 106.946ZM98.96 50.7753C98.96 50.7753 78.8202 103.902 76.3537 117.61C73.2092 135.054 90.4837 107.928 93.9489 99.1334C97.4959 90.1264 102.217 67.5883 98.96 50.7753Z" fill="#85CDB2"/>
<path d="M76.4076 123.83C76.4076 123.83 76.784 122.942 76.5915 123.254C74.4702 126.7 63.8969 146.4 61.2095 149.427C58.3015 152.718 65.1153 146.47 65.1153 146.47L76.4076 123.83ZM78.8145 67.4291C78.8145 67.4291 58.6686 120.572 56.2014 134.284C53.056 151.733 70.3357 124.599 73.8019 115.802C77.3465 106.807 82.1 84.232 78.8145 67.4291Z" fill="#85CDB2"/>
<path d="M56.3652 140.523C56.3652 140.523 56.7412 139.635 56.5489 139.947C54.4301 143.389 43.4643 163.675 40.7744 166.689C37.8699 169.976 45.3894 163.224 45.3894 163.224L56.3652 140.523ZM56.873 77.6595C56.873 77.6595 38.5061 135.257 36.0691 148.938C32.9273 166.367 51.7185 134.827 55.1806 126.039C58.7155 117.045 60.1547 94.4433 56.873 77.6595Z" fill="#85CDB2"/>
<path d="M35.2575 155.016C35.2575 155.016 35.4338 154.505 35.1898 154.898C32.5956 159.043 19.7252 183.576 16.5589 187.315C13.0964 191.398 22.1015 183.279 22.1015 183.279L35.2575 155.016ZM28.668 90.1312C24.8608 103.762 21.7898 117.648 19.4683 131.729C17.4053 145.262 18.0522 158.198 17.838 163.745C17.1692 181.303 30.3665 147.047 32.607 137.774C34.9001 128.277 34.416 105.607 28.668 90.1312ZM19.1438 168.244C19.1438 168.244 19.3201 167.734 19.0761 168.127C16.482 172.271 2.533 198.743 -0.753152 202.316C-1.48761 203.135 5.96561 196.803 5.96561 196.803L19.1438 168.244ZM8.18985 107.491C3.90118 122.813 0.414267 138.413 -2.25677 154.228C-4.64995 169.427 -4.05805 183.94 -4.32664 190.188C-5.22243 209.884 9.54853 171.326 12.0866 160.895C14.6365 150.212 14.3394 124.833 8.18985 107.491ZM-28.1937 133.568C-28.1937 133.568 -23.5096 157.51 -21.9711 177.135C-20.1713 200.16 -19.322 203.429 -17.3217 208.085C-11.0216 222.739 -5.09535 177.23 -6.46624 168.331C-7.89506 159.206 -16.0657 142.609 -28.1937 133.568Z" fill="#85CDB2"/>
<path d="M-5.20412 195.975C-5.0547 195.634 -4.92381 195.283 -4.81201 194.924C-6.11608 197.158 -10.5006 208.951 -12.4649 210.588C-12.9335 210.978 -8.97007 207.828 -8.97007 207.828L-5.20412 195.975ZM-16.7133 208.936C-16.7133 208.936 -16.5586 208.212 -16.6167 208.322C-17.1747 209.465 -18.3045 216.393 -19.5377 216.934C-19.8142 217.087 -17.3174 216.079 -17.3174 216.079L-16.7133 208.936Z" fill="#85CDB2"/>
</svg>
