<svg width="232" height="239" viewBox="0 0 232 239" fill="none" xmlns="http://www.w3.org/2000/svg">
<path d="M152.037 160.333L-82.2413 80.4241L-77.9153 74.9753L152.037 160.333Z" fill="#85CDB2"/>
<path d="M181.015 189.509C181.015 189.509 155.543 172.471 152.759 162.601C152.759 162.601 173.155 165.012 181.015 189.509ZM158.01 204.943C158.01 204.943 146.185 178.471 148.219 167.943C148.213 167.952 162.345 178.43 158.01 204.943Z" fill="#85CDB2"/>
<path d="M204.157 172.02C204.157 172.02 161.698 172.737 154.462 162.127C154.462 162.127 184.756 146.534 204.157 172.02ZM141.23 207.808C141.23 207.808 124.063 176.421 119.686 167.051C118.649 164.849 118.472 163.468 118.903 162.638C120.107 160.291 126.496 163.402 130.238 166.397C135.21 170.412 146.879 187.589 141.23 207.808Z" fill="#85CDB2"/>
<path d="M119.225 161.493C119.225 161.493 119.288 161.689 119.105 161.486C117.12 159.263 105.104 145.769 102.425 144.282C99.491 142.667 106.942 145.395 106.942 145.395L119.225 161.493ZM147.806 166.939C147.806 166.939 147.691 167.342 147.622 167.235C146.166 164.478 137.036 157.112 134.351 155.635C131.418 154.021 137.249 156.177 137.249 156.177L147.806 166.939ZM125.917 204.702C125.917 204.702 96.6762 172.361 93.465 160.613C89.3405 145.635 108.3 158.452 110.841 162.102C113.383 165.751 129.698 184.612 125.917 204.702Z" fill="#85CDB2"/>
<path d="M147.781 166.354C147.781 166.354 147.666 166.756 147.597 166.649C146.143 163.896 137.024 156.539 134.342 155.063C131.411 153.451 137.236 155.605 137.236 155.605L147.781 166.354ZM95.0976 154.469C95.0976 154.469 95.1727 154.684 94.999 154.409C92.8093 151.985 79.2943 137.056 76.3906 135.302C73.209 133.381 81.2531 136.744 81.2531 136.744L95.0976 154.469ZM95.0494 216.297C95.0494 216.297 69.4333 169.55 67.486 155.064C65.0124 136.614 85.3293 155.533 87.4842 160.585C89.6391 165.637 101.044 194.752 95.0494 216.297Z" fill="#85CDB2"/>
<path d="M68.747 146.928C68.747 146.928 69.1628 147.741 68.93 147.483C66.4471 144.754 54.3316 128.202 51.095 126.247C47.483 124.145 55.9866 127.344 55.9866 127.344L68.747 146.928ZM67.5912 212.788C67.5912 212.788 43.7776 160.916 41.3664 145.934C38.2662 126.925 59.8866 149.452 64.0035 157.969C68.1657 166.748 73.1363 190.929 67.5912 212.788Z" fill="#85CDB2"/>
<path d="M42.3333 138.019C42.3333 138.019 42.7881 138.869 42.5373 138.6C39.8916 135.693 26.8371 118.215 23.3927 116.135C19.6263 113.86 28.5024 117.44 28.5024 117.44L42.3333 138.019ZM41.8882 203.866C41.8882 203.866 18.0598 151.961 15.6471 136.969C12.545 117.948 34.1788 140.49 38.2982 149.012C42.4719 157.763 47.4545 181.964 41.8882 203.866Z" fill="#85CDB2"/>
<path d="M16.7544 129.04C16.7544 129.04 17.2085 129.889 16.9581 129.62C14.3162 126.718 0.782866 108.781 -2.65655 106.704C-6.41757 104.433 3.36495 108.21 3.36495 108.21L16.7544 129.04ZM13.3069 203.67C13.3069 203.67 -7.78357 145.474 -10.2164 130.542C-13.3141 111.548 10.075 138.469 14.1885 146.979C18.4036 155.681 18.8652 181.8 13.3069 203.67Z" fill="#85CDB2"/>
<path d="M-9.83236 123.577C-9.83236 123.577 -9.61447 124.074 -9.93866 123.748C-13.1602 120.315 -28.8738 98.5649 -32.8971 95.9263C-37.2532 93.0736 -25.7084 97.5813 -25.7084 97.5813L-9.83236 123.577ZM-22.9143 203.987C-27.2347 189.67 -30.4654 174.966 -32.5791 160C-34.4694 145.164 -32.7548 129.505 -32.6799 123.068C-32.4283 102.692 -16.9162 135.746 -14.4997 145.448C-12.044 155.383 -14.2177 182.502 -22.9143 203.987Z" fill="#85CDB2"/>
<path d="M-31.2327 115.959C-31.2327 115.959 -31.0148 116.456 -31.339 116.13C-34.5603 112.697 -51.5851 89.2558 -55.7617 86.8636C-56.7332 86.2769 -47.0819 89.5891 -47.0819 89.5891L-31.2327 115.959ZM-49.9288 193.937C-49.9288 193.937 -57.6523 169.332 -60.9627 144.575C-63.1838 127.948 -61.4534 110.474 -61.4369 103.285C-61.3578 80.5104 -43.985 117.738 -41.2747 128.661C-38.4543 139.781 -40.563 170.041 -49.9288 193.937ZM-97.1667 183.613C-97.1667 183.613 -89.3025 152.68 -85.9642 128.614C-82.0554 100.405 -80.6641 96.0284 -77.7096 89.4402C-68.2794 68.57 -63.2756 119.025 -65.7075 130.324C-68.1981 141.874 -80.3007 166.086 -97.1667 183.613Z" fill="#85CDB2"/>
<path d="M185.773 163.58C185.773 163.58 154.763 157.862 145.073 160.27C145.079 160.261 161.086 169.053 185.773 163.58ZM182.032 146.776C182.032 146.776 153.028 151.138 146.139 156.079C158.522 157.29 171.224 153.998 182.032 146.776Z" fill="#85CDB2"/>
<path d="M188.263 181.339C188.263 181.339 159.379 160.69 145.934 161.237C145.939 161.228 154.617 181.708 188.263 181.339ZM172.881 137.506C172.881 137.506 136.121 141.221 125.655 142.659C123.193 142.996 121.983 143.442 121.638 143.935C120.62 145.411 127.514 147.293 132.479 147.955C139.114 148.833 160.812 147.904 172.881 137.506Z" fill="#85CDB2"/>
<path d="M121.738 143.559C121.738 143.559 121.941 143.511 121.648 143.505C118.528 143.392 99.621 142.762 96.5978 142.038C93.3024 141.255 100.589 143.767 100.589 143.767L121.738 143.559ZM145.749 155.126C145.749 155.126 145.99 154.917 145.873 154.926C142.704 155.269 130.577 153.68 127.589 152.978C124.294 152.194 130.01 154.152 130.01 154.152L145.749 155.126ZM160.325 130.448C160.325 130.448 114.758 128.731 103.263 131.621C88.6099 135.294 111.799 139.51 116.43 139.34C121.061 139.171 147.145 139.831 160.325 130.448Z" fill="#85CDB2"/>
<path d="M145.491 154.989C145.491 154.989 145.732 154.781 145.616 154.789C142.443 155.133 130.302 153.541 127.311 152.838C124.012 152.054 129.735 154.014 129.735 154.014L145.491 154.989ZM99.6728 134.32C99.6728 134.32 99.9 134.274 99.5739 134.261C96.0974 134.119 75.0291 133.325 71.6493 132.571C67.9552 131.746 76.1511 134.345 76.1511 134.345L99.6728 134.32ZM148.351 110.868C148.351 110.868 93.7872 116.313 81.0165 120.876C64.7648 126.675 93.7302 129.217 99.1688 128.336C104.607 127.454 135.548 121.92 148.351 110.868Z" fill="#85CDB2"/>
<path d="M76.0835 123.556C76.0835 123.556 77.0024 123.445 76.6484 123.44C72.7891 123.292 51.4201 123.781 47.6775 122.932C43.5837 122.015 51.9114 124.849 51.9114 124.849L76.0835 123.556ZM127.049 98.1629C127.049 98.1629 69.8604 106.386 56.439 110.853C39.3561 116.533 71.9728 118.341 81.5042 117.093C91.2645 115.813 113.658 109.04 127.049 98.1629Z" fill="#85CDB2"/>
<path d="M51.305 113.608C51.305 113.608 52.2807 113.505 51.9087 113.489C47.8013 113.322 25.0782 113.703 21.0668 112.849C16.713 111.932 25.6114 114.784 25.6114 114.784L51.305 113.608ZM102.744 88.5771C102.744 88.5771 45.5397 96.802 32.1148 101.27C15.0274 106.952 47.6527 108.761 57.1865 107.512C66.9346 106.235 89.3752 99.4731 102.744 88.5771Z" fill="#85CDB2"/>
<path d="M26.9595 104.112C26.9595 104.112 27.9342 104.009 27.5626 103.993C23.4594 103.826 0.019084 104.152 -3.98227 103.289C-8.33162 102.372 1.36155 105.589 1.36155 105.589L26.9595 104.112ZM83.2354 74.3405C83.2354 74.3405 22.9238 86.235 9.53944 90.715C-7.53046 96.3907 29.7649 97.3819 39.289 96.1343C49.033 94.8497 69.8806 85.2256 83.2354 74.3405Z" fill="#85CDB2"/>
<path d="M4.38712 92.3411C4.38712 92.3411 4.92756 92.2475 4.45844 92.2266C-0.498644 91.9885 -28.6299 92.7148 -33.5056 91.7906C-38.8326 90.7774 -27.2047 94.6131 -27.2047 94.6131L4.38712 92.3411ZM58.9429 55.5248C44.9461 58.8002 31.0819 62.8304 17.4104 67.5977C4.35221 72.3245 -6.85009 79.0917 -11.894 81.5713C-27.8549 89.4282 9.09339 84.3139 18.4452 81.7852C28.0208 79.1948 47.9708 67.8928 58.9429 55.5248ZM-15.2622 84.8533C-15.2622 84.8533 -14.7217 84.7597 -15.1909 84.7389C-20.1479 84.5007 -50.5318 85.2313 -55.3184 84.1246C-56.4066 83.8872 -47.1284 87.2483 -47.1284 87.2483L-15.2622 84.8533ZM33.4831 46.2723C17.7458 49.9459 2.15219 54.4419 -13.2343 59.7418C-27.9369 64.9848 -40.5709 72.4624 -46.2652 75.2318C-64.2399 83.9199 -22.6932 78.0919 -12.1653 75.2629C-1.40773 72.3233 21.0452 59.8815 33.4831 46.2723ZM-7.50674 27.5441C-7.50674 27.5441 -26.5379 43.0643 -43.2602 53.809C-62.8834 66.4113 -65.3795 68.7105 -68.5484 72.6644C-78.5194 85.1122 -35.1021 68.349 -27.848 62.8985C-20.4212 57.2898 -9.63392 42.3025 -7.50674 27.5441Z" fill="#85CDB2"/>
</svg>
