<svg width="141" height="231" viewBox="0 0 141 231" fill="none" xmlns="http://www.w3.org/2000/svg">
<path d="M63.833 49.4143L-167.622 132.51L-167.91 125.363L63.833 49.4143Z" fill="#85CDB2"/>
<path d="M104.797 52.4946C104.797 52.4946 74.1553 54.584 65.51 48.5301C65.51 48.5301 82.6161 38.0457 104.797 52.4946ZM97.5108 78.5625C97.5108 78.5625 71.0075 64.9702 65.5902 55.4754C65.592 55.4865 83.27 55.1313 97.5108 78.5625Z" fill="#85CDB2"/>
<path d="M110.995 24.9357C110.995 24.9357 79.1652 51.2787 66.6386 47.3436C66.6386 47.3436 79.3706 16.7106 110.995 24.9357ZM86.7977 91.2352C86.7977 91.2352 52.9676 77.0213 43.4375 72.3243C41.1917 71.2248 40.1432 70.2482 39.9219 69.335C39.2849 66.7621 46.204 65.3244 51.0334 65.404C57.4734 65.5365 77.7168 71.934 86.7977 91.2352Z" fill="#85CDB2"/>
<path d="M39.0926 69.3656C39.0926 69.3656 39.2702 69.4807 38.9975 69.4329C36.016 68.8933 17.948 65.597 14.9259 66.0564C11.6264 66.5702 19.0995 64.188 19.0995 64.188L39.0926 69.3656ZM64.438 56.2907C64.438 56.2907 64.6169 56.6769 64.4934 56.6346C61.5624 55.3547 49.7441 55.1161 46.7239 55.5866C43.4243 56.1004 49.2871 54.2532 49.2871 54.2532L64.438 56.2907ZM72.7705 99.2121C72.7705 99.2121 29.1302 91.5813 18.9152 84.3113C5.86846 75.0608 28.7705 73.6109 33.1183 74.9317C37.4661 76.2526 62.3553 81.1513 72.7705 99.2121Z" fill="#85CDB2"/>
<path d="M63.6655 56.3173C63.6655 56.3173 63.844 56.7028 63.7208 56.6605C60.7948 55.383 48.9969 55.1449 45.9818 55.6145C42.6879 56.1273 48.5406 54.2835 48.5406 54.2835L63.6655 56.3173ZM15.753 78.9525C15.753 78.9525 15.9529 79.0762 15.6387 78.9656C12.371 78.3927 -7.77605 74.8818 -11.1433 75.2677C-14.8328 75.6906 -6.49322 73.449 -6.49322 73.449L15.753 78.9525ZM56.6021 127.474C56.6021 127.474 6.21451 106.348 -4.84542 96.1678C-18.9266 83.1979 9.03015 85.7122 14.0092 88.3673C18.9882 91.0225 46.9125 106.94 56.6021 127.474Z" fill="#85CDB2"/>
<path d="M-9.60694 90.1147C-9.60694 90.1147 -8.75406 90.5002 -9.10135 90.4389C-12.7885 89.805 -32.9169 84.1771 -36.6648 84.6068C-40.7954 85.1478 -32.2271 82.5019 -32.2271 82.5019L-9.60694 90.1147ZM33.0088 142.42C33.0088 142.42 -19.3254 116.205 -31.0499 105.927C-45.9567 92.911 -14.6665 97.4616 -5.91681 101.64C3.04087 105.997 22.7829 121.932 33.0088 142.42Z" fill="#85CDB2"/>
<path d="M-35.6801 99.9617C-35.6801 99.9617 -34.7728 100.353 -35.1412 100.294C-39.0707 99.6191 -60.5322 93.8332 -64.5223 94.2906C-68.8855 94.7907 -59.7792 92.2169 -59.7792 92.2169L-35.6801 99.9617ZM7.4836 151.837C7.4836 151.837 -44.9043 125.6 -56.6409 115.313C-71.5629 102.286 -40.2407 106.841 -31.482 111.023C-22.5308 115.352 -2.75812 131.299 7.4836 151.837Z" fill="#85CDB2"/>
<path d="M92.2155 29.347C92.2155 29.347 64.797 43.7193 59.0023 51.5006C59.0005 51.4895 77.0138 48.6511 92.2155 29.347ZM78.2578 18.4428C78.2578 18.4428 59.0306 39.5009 57.0447 47.5658C67.2847 40.9854 74.7916 30.6795 78.2578 18.4428Z" fill="#85CDB2"/>
<path d="M105.894 41.9838C105.894 41.9838 70.1908 43.3928 60.2849 52.0669C60.2832 52.0557 80.4448 62.9001 105.894 41.9838ZM65.1798 16.8199C65.1798 16.8199 39.5634 42.2852 32.5221 49.8351C30.8645 51.6103 30.2345 52.7042 30.2977 53.3046C30.4959 55.0935 37.0041 52.3531 41.2327 49.8319C46.8796 46.4577 62.8351 32.4246 65.1798 16.8199Z" fill="#85CDB2"/>
<path d="M30.2632 53.8238C30.2632 53.8238 30.3862 53.6627 30.1588 53.8358C27.7067 55.6443 12.8794 66.6436 10.0969 67.914C7.06773 69.3032 14.2818 66.8431 14.2818 66.8431L30.2632 53.8238ZM56.207 48.2966C56.207 48.2966 56.2531 47.9863 56.1698 48.0637C53.9814 50.2597 43.6877 56.3856 40.9469 57.6512C37.9178 59.0404 43.5681 57.0999 43.5681 57.0999L56.207 48.2966ZM51.0087 20.0878C51.0087 20.0878 15.144 46.4415 8.29301 55.6948C-0.447938 67.4824 20.0118 56.6912 23.4293 53.7431C26.8468 50.7951 47.1642 35.4561 51.0087 20.0878Z" fill="#85CDB2"/>
<path d="M56.071 48.6686C56.071 48.6686 56.1171 48.3577 56.0338 48.4353C53.8419 50.6357 43.5318 56.7742 40.7866 58.0423C37.7527 59.4344 43.412 57.4899 43.412 57.4899L56.071 48.6686ZM7.47167 60.3296C7.47167 60.3296 7.61398 60.1547 7.35672 60.3429C4.61205 62.3468 -11.9773 74.5431 -15.0529 76.0079C-18.4155 77.6078 -10.4475 74.6607 -10.4475 74.6607L7.47167 60.3296ZM29.0873 12.3109C29.0873 12.3109 -8.91954 49.7821 -15.6411 61.1325C-24.1999 75.5706 -0.433156 59.9412 3.13124 55.9406C6.69564 51.94 26.6299 28.7723 29.0873 12.3109Z" fill="#85CDB2"/>
<path d="M-17.5271 67.1701C-17.5271 67.1701 -16.9019 66.5254 -17.1743 66.7364C-20.2069 68.9614 -36.1341 82.3077 -39.5401 83.9135C-43.2584 85.6789 -35.056 82.8454 -35.056 82.8454L-17.5271 67.1701ZM4.48193 16.3796C4.48193 16.3796 -33.584 57.5074 -40.8441 69.1452C-50.0887 83.9533 -24.0926 65.5824 -17.668 58.8233C-11.09 51.9005 1.47187 33.0158 4.48193 16.3796Z" fill="#85CDB2"/>
</svg>
