<svg width="30" height="32" viewBox="0 0 30 32" fill="none" xmlns="http://www.w3.org/2000/svg">
<path d="M1.51853 12.0996C1.84753 12.1398 2.14642 11.9038 2.18569 11.575L2.18569 11.575C2.53692 8.63083 3.94995 6.04393 6.01429 4.17729C1.84652 10.3667 6.19446 19.1001 14.001 19.1001C21.7841 19.1001 26.1655 10.3819 21.9894 4.17956C24.442 6.4017 25.9009 9.54654 25.9009 13.0002V17.9001H24.5009C23.6186 17.9001 22.9009 18.6178 22.9009 19.5001C22.9009 20.1706 23.3154 20.7453 23.9009 20.983V29.5C23.9009 30.9337 25.0672 32.1 26.5009 32.1C27.9346 32.1 29.1009 30.9337 29.1009 29.5V20.983C29.6865 20.7453 30.1009 20.1706 30.1009 19.5001C30.1009 18.6178 29.3832 17.9001 28.5009 17.9001H27.1009V13.0002C27.1009 9.50069 25.7381 6.21065 23.264 3.73729C15.5718 -3.95716 2.28786 0.58793 0.994113 11.4328L0.994112 11.4328C0.954897 11.7618 1.18967 12.0602 1.51853 12.0996ZM1.51853 12.0996L1.53065 12.0004M1.51853 12.0996C1.51862 12.0996 1.51871 12.0997 1.51879 12.0997L1.53065 12.0004M1.53065 12.0004C1.8044 12.0338 2.05365 11.8373 2.0864 11.5631M1.53065 12.0004C1.25647 11.9676 1.06072 11.7189 1.09341 11.4447C2.37721 0.683167 15.5598 -3.82779 23.1933 3.80801L2.0864 11.5631M2.0864 11.5631C2.45795 8.44862 4.00783 5.73061 6.25786 3.83173L2.0864 11.5631ZM19.401 6.50023C19.401 9.47766 16.9785 11.9002 14.001 11.9002C11.0236 11.9002 8.60109 9.47766 8.60109 6.50023C8.60109 3.52281 11.0236 1.10029 14.001 1.10029C16.9785 1.10029 19.401 3.52274 19.401 6.50023ZM14.001 17.9001C9.36937 17.9001 5.60112 14.1318 5.60112 9.50021C5.60112 7.15908 6.56412 5.0389 8.11492 3.51393C5.9184 7.79177 9.00745 13.1002 14.001 13.1002C18.9966 13.1002 22.0831 7.79075 19.8872 3.51398C21.4379 5.03891 22.4009 7.15913 22.4009 9.50021C22.4009 14.1318 18.6327 17.9001 14.001 17.9001ZM27.9009 29.5C27.9009 30.2718 27.2727 30.9 26.5009 30.9C25.7291 30.9 25.1009 30.2718 25.1009 29.5V21.1001H27.9009V29.5ZM28.5009 19.9001H24.5009C24.2805 19.9001 24.1009 19.7206 24.1009 19.5001C24.1009 19.2797 24.2805 19.1001 24.5009 19.1001H28.5009C28.7213 19.1001 28.9009 19.2797 28.9009 19.5001C28.9009 19.7206 28.7214 19.9001 28.5009 19.9001Z" fill="#289C90" stroke="#289C90" stroke-width="0.2"/>
</svg>
