<svg width="34" height="34" viewBox="0 0 34 34" fill="none" xmlns="http://www.w3.org/2000/svg">
<path d="M6.8063 6.13628C6.9981 6.44759 7.19981 6.7534 7.4113 7.0497C7.60372 7.31929 7.97838 7.38178 8.24804 7.18934L8.24805 7.18933C8.51768 6.99686 8.58021 6.62227 8.38774 6.35265L8.38773 6.35264C8.15453 6.02602 7.93275 5.68737 7.7253 5.34145C8.90604 4.40024 10.2277 3.63614 11.6815 3.08144C15.5257 7.98091 22.256 9.49115 27.7979 6.749C28.5888 7.58136 29.2649 8.47575 29.8525 9.47832C24.2771 13.8274 16.4682 13.6626 11.0894 9.24229C10.8335 9.03193 10.4554 9.06886 10.2451 9.32491C10.0348 9.58082 10.0718 9.95885 10.3278 10.1692C16.1029 14.9151 24.4322 15.1011 30.4237 10.5516C31.134 12.0259 31.6046 13.6208 31.7944 15.3184C23.0936 23.0582 9.27397 20.7384 3.71082 10.2571C4.48678 8.72959 5.51206 7.34724 6.8063 6.13628ZM32.4891 31.8949H23.0944C27.6679 30.0211 31.2532 26.0906 32.5632 21.0942C35.2484 10.8721 27.5193 0.905615 16.9945 0.905615C8.02144 0.905615 0.719878 8.26307 0.903582 17.332C1.03118 23.6375 4.87952 29.4347 10.8878 31.8949H1.49983C1.16857 31.8949 0.9 32.1635 0.9 32.4947C0.9 32.826 1.16857 33.0946 1.49983 33.0946H32.4891C32.8204 33.0946 33.0889 32.826 33.0889 32.4947C33.0889 32.1635 32.8204 31.8949 32.4891 31.8949ZM12.8984 2.67632C17.6543 1.31712 22.9527 2.36957 26.8777 5.85735C21.9804 8.06167 16.2841 6.68127 12.8984 2.67632ZM2.13333 18.0044C1.98324 15.7272 2.34174 13.5749 3.10149 11.6199C9.16641 21.8437 22.8121 24.1458 31.8876 16.8104C31.9041 18.1158 31.7517 19.4098 31.4365 20.6569C23.2769 30.0382 8.40676 28.568 2.13333 18.0044ZM16.9945 31.8949C10.1538 31.8949 4.2651 27.1801 2.58203 20.7641C9.50053 29.4963 22.2525 30.5399 30.5005 23.2937C28.0935 28.4648 22.861 31.8949 16.9945 31.8949Z" fill="#289C90" stroke="#289C90" stroke-width="0.2"/>
</svg>
