<svg width="32" height="32" viewBox="0 0 32 32" fill="none" xmlns="http://www.w3.org/2000/svg">
<g clip-path="url(#clip0_457_633)">
<path d="M5.49995 17.9002H4.09996V15.5002C4.09996 15.1689 3.83132 14.9002 3.49997 14.9002C3.16861 14.9002 2.89997 15.1689 2.89997 15.5002V17.9002H1.49999C0.617637 17.9002 -0.1 18.6179 -0.1 19.5002C-0.1 20.1707 0.314458 20.7454 0.89999 20.9831V29.5001C0.89999 30.9338 2.06625 32.1001 3.49997 32.1001C4.93368 32.1001 6.09994 30.9338 6.09994 29.5001V20.9831C6.68547 20.7454 7.09993 20.1707 7.09993 19.5002C7.09993 18.6179 6.38229 17.9002 5.49995 17.9002ZM4.89995 29.5001C4.89995 30.2719 4.27179 30.9001 3.49997 30.9001C2.72814 30.9001 2.09998 30.2719 2.09998 29.5001V21.1002H4.89995V29.5001ZM5.49995 19.9002H1.49999C1.27953 19.9002 1.09999 19.7207 1.09999 19.5002C1.09999 19.2797 1.27953 19.1002 1.49999 19.1002H5.49995C5.7204 19.1002 5.89994 19.2797 5.89994 19.5002C5.89994 19.7207 5.72046 19.9002 5.49995 19.9002Z" fill="#289C90" stroke="#289C90" stroke-width="0.2"/>
<path d="M3.51853 12.0996C3.84753 12.1398 4.14642 11.9038 4.18569 11.575L4.18569 11.575C4.53692 8.63083 5.94995 6.04393 8.01429 4.17729C3.84652 10.3667 8.19446 19.1001 16.001 19.1001C23.7841 19.1001 28.1655 10.3819 23.9894 4.17956C26.442 6.4017 27.9009 9.54654 27.9009 13.0002V17.9001H26.5009C25.6186 17.9001 24.9009 18.6178 24.9009 19.5001C24.9009 20.1706 25.3154 20.7453 25.9009 20.983V29.5C25.9009 30.9337 27.0672 32.1 28.5009 32.1C29.9346 32.1 31.1009 30.9337 31.1009 29.5V20.983C31.6865 20.7453 32.1009 20.1706 32.1009 19.5001C32.1009 18.6178 31.3832 17.9001 30.5009 17.9001H29.1009V13.0002C29.1009 9.50069 27.7381 6.21065 25.264 3.73729C17.5718 -3.95716 4.28786 0.58793 2.99411 11.4328L2.99411 11.4328C2.9549 11.7618 3.18967 12.0602 3.51853 12.0996ZM3.51853 12.0996L3.53065 12.0004M3.51853 12.0996C3.51862 12.0996 3.51871 12.0997 3.51879 12.0997L3.53065 12.0004M3.53065 12.0004C3.8044 12.0338 4.05365 11.8373 4.0864 11.5631M3.53065 12.0004C3.25647 11.9676 3.06072 11.7189 3.09341 11.4447C4.37721 0.683167 17.5598 -3.82779 25.1933 3.80801L4.0864 11.5631M4.0864 11.5631C4.45795 8.44862 6.00783 5.73061 8.25786 3.83173L4.0864 11.5631ZM21.401 6.50023C21.401 9.47766 18.9785 11.9002 16.001 11.9002C13.0236 11.9002 10.6011 9.47766 10.6011 6.50023C10.6011 3.52281 13.0236 1.10029 16.001 1.10029C18.9785 1.10029 21.401 3.52274 21.401 6.50023ZM16.001 17.9001C11.3694 17.9001 7.60112 14.1318 7.60112 9.50021C7.60112 7.15908 8.56412 5.0389 10.1149 3.51393C7.9184 7.79177 11.0074 13.1002 16.001 13.1002C20.9966 13.1002 24.0831 7.79075 21.8872 3.51398C23.4379 5.03891 24.4009 7.15913 24.4009 9.50021C24.4009 14.1318 20.6327 17.9001 16.001 17.9001ZM29.9009 29.5C29.9009 30.2718 29.2727 30.9 28.5009 30.9C27.7291 30.9 27.1009 30.2718 27.1009 29.5V21.1001H29.9009V29.5ZM30.5009 19.9001H26.5009C26.2805 19.9001 26.1009 19.7206 26.1009 19.5001C26.1009 19.2797 26.2805 19.1001 26.5009 19.1001H30.5009C30.7213 19.1001 30.9009 19.2797 30.9009 19.5001C30.9009 19.7206 30.7214 19.9001 30.5009 19.9001Z" fill="#289C90" stroke="#289C90" stroke-width="0.2"/>
<path d="M3.5 14.1627C3.83135 14.1627 4.1 13.8941 4.1 13.5627V13.5002C4.1 13.1689 3.83135 12.9002 3.5 12.9002C3.16865 12.9002 2.9 13.1689 2.9 13.5002V13.5627C2.9 13.8941 3.16865 14.1627 3.5 14.1627Z" fill="#289C90" stroke="#289C90" stroke-width="0.2"/>
</g>
<defs>
<clipPath id="clip0_457_633">
<rect width="32" height="32" fill="white"/>
</clipPath>
</defs>
</svg>
